<?xml version="1.0" encoding="utf-8"?>
<!-- Generator: Adobe Illustrator 23.1.1, SVG Export Plug-In . SVG Version: 6.00 Build 0)  -->
<svg version="1.1" id="Layer_1" xmlns="http://www.w3.org/2000/svg" xmlns:xlink="http://www.w3.org/1999/xlink" x="0px" y="0px"
	 viewBox="0 0 3300 2200" style="enable-background:new 0 0 3300 2200;" xml:space="preserve">
<style type="text/css">
	.st0{fill:#FFFFFF;}
	.st1{fill:none;stroke:#000000;stroke-width:0.5;}
	.st2{font-family:'Arial-BoldMT';}
	.st3{font-size:12px;}
	.st4{font-family:'ArialMT';}
	.st5{opacity:0.4;fill:#00AEEF;enable-background:new    ;}
	.st6{fill:#27AAE1;}
	.st7{fill:none;stroke:#27AAE1;stroke-width:0.577;}
</style>
<g id="Notes">
	<rect id="artboard" class="st0" width="3300" height="2200"/>
	<line class="st1" x1="263" y1="292" x2="3036" y2="292"/>
	<text transform="matrix(1 0 0 1 263 322)" class="st2 st3">Weight/Scale Variations</text>
	<text transform="matrix(1 0 0 1 536.0361 322)" class="st4 st3">Ultralight</text>
	<text transform="matrix(1 0 0 1 844.7501 322)" class="st4 st3">Thin</text>
	<text transform="matrix(1 0 0 1 1140.1193 322)" class="st4 st3">Light</text>
	<text transform="matrix(1 0 0 1 1428.8282 322)" class="st4 st3">Regular</text>
	<text transform="matrix(1 0 0 1 1725.2202 322)" class="st4 st3">Medium</text>
	<text transform="matrix(1 0 0 1 2018.2563 322)" class="st4 st3">Semibold</text>
	<text transform="matrix(1 0 0 1 2327.9712 322)" class="st4 st3">Bold</text>
	<text transform="matrix(1 0 0 1 2619.6831 322)" class="st4 st3">Heavy</text>
	<text transform="matrix(1 0 0 1 2918.728 322)" class="st4 st3">Black</text>
	<line class="st1" x1="263" y1="1903" x2="3036" y2="1903"/>
	<g transform="matrix(1 0 0 1 263 1933)">
		<path d="M9.2,0.8c4.3,0,7.9-3.6,7.9-7.9c0-4.3-3.6-7.9-7.9-7.9c-4.3,0-7.9,3.6-7.9,7.9C1.4-2.7,5,0.8,9.2,0.8z M9.2-0.7
			c-3.5,0-6.4-2.8-6.4-6.4c0-3.6,2.8-6.4,6.4-6.4c3.6,0,6.4,2.8,6.4,6.4C15.7-3.5,12.8-0.7,9.2-0.7z M9.2-3.4c0.5,0,0.7-0.3,0.7-0.8
			v-2.1h2.2C12.7-6.3,13-6.6,13-7c0-0.5-0.3-0.7-0.8-0.7H10V-10c0-0.5-0.3-0.8-0.7-0.8S8.5-10.5,8.5-10v2.2H6.3
			C5.8-7.8,5.4-7.5,5.4-7c0,0.5,0.4,0.7,0.8,0.7h2.2v2.1C8.5-3.8,8.8-3.4,9.2-3.4z"/>
	</g>
	<g transform="matrix(1 0 0 1 281.506 1933)">
		<path d="M11.7,2.9c5.4,0,10-4.5,10-10c0-5.4-4.5-10-10-10c-5.4,0-10,4.5-10,10C1.7-1.6,6.3,2.9,11.7,2.9z M11.7,1.2
			c-4.6,0-8.3-3.7-8.3-8.3c0-4.6,3.7-8.3,8.3-8.3c4.6,0,8.3,3.7,8.3,8.3C20-2.4,16.3,1.2,11.7,1.2z M11.7-2.4c0.5,0,0.8-0.4,0.8-0.9
			v-2.9h3.1c0.5,0,0.9-0.3,0.9-0.8c0-0.5-0.4-0.8-0.9-0.8h-3.1v-3.1c0-0.6-0.3-0.9-0.8-0.9c-0.5,0-0.8,0.4-0.8,0.9v3.1h-3
			C7.3-7.9,6.9-7.6,6.9-7c0,0.5,0.4,0.8,0.9,0.8h3v2.9C10.9-2.8,11.2-2.4,11.7-2.4z"/>
	</g>
	<g transform="matrix(1 0 0 1 304.924 1933)">
		<path d="M15,5.7c7,0,12.7-5.8,12.7-12.7c0-7-5.8-12.7-12.7-12.7C8-19.8,2.3-14,2.3-7C2.3-0.1,8,5.7,15,5.7z M15,3.9
			C8.9,3.9,4.1-1,4.1-7c0-6,4.8-10.9,10.9-10.9c6,0,10.9,4.9,10.9,10.9C25.9-1,21,3.9,15,3.9z M15-1.1c0.6,0,0.9-0.4,0.9-1v-4.1h4.2
			c0.6,0,1-0.3,1-0.9c0-0.6-0.4-0.9-1-0.9h-4.2v-4.2c0-0.6-0.4-1-0.9-1c-0.6,0-0.9,0.4-0.9,1v4.2H9.8c-0.6,0-1,0.3-1,0.9
			c0,0.6,0.4,0.9,1,0.9h4.2v4.1C14.1-1.5,14.4-1.1,15-1.1z"/>
	</g>
	<text transform="matrix(1 0 0 1 263 1953)" class="st2 st3">Design Variations</text>
	<text transform="matrix(1 0 0 1 263 1971)" class="st4 st3">Symbols are supported in up to nine weights and three scales.</text>
	<text transform="matrix(1 0 0 1 263 1989)" class="st4 st3">For optimal layout with text and other symbols, vertically align</text>
	<text transform="matrix(1 0 0 1 263 2007)" class="st4 st3">symbols with the adjacent text.</text>
	<rect x="776" y="1919" class="st5" width="3" height="14"/>
	<g transform="matrix(1 0 0 1 779 1933)">
		<path d="M10.5,0h1.8L7.2-14.1H5.4L0.2,0h1.8l1.4-4h5.6L10.5,0z M6.3-12L6.3-12l2.3,6.4H4L6.3-12z"/>
	</g>
	<rect x="791.6" y="1919" class="st5" width="3" height="14"/>
	<text transform="matrix(1 0 0 1 776 1953)" class="st2 st3">Margins</text>
	<text transform="matrix(1 0 0 1 776 1971)" class="st4 st3">Leading and trailing margins on the left and right side of each symbol</text>
	<text transform="matrix(1 0 0 1 776 1989)" class="st4 st3">can be adjusted by modifying the width of the blue rectangles.</text>
	<text transform="matrix(1 0 0 1 776 2007)" class="st4 st3">Modifications are automatically applied proportionally to all</text>
	<text transform="matrix(1 0 0 1 776 2025)" class="st4 st3">scales and weights.</text>
	<g transform="matrix(1 0 0 1 1289 1933)">
		<path d="M2.8,3.1l1.5,1.5c0.8,0.8,1.8,0.8,2.7-0.2L17.3-6.7c0.4,0.3,0.8,0.3,1.3,0.2l1-0.2L20.3-6l0,0.5C20.2-5,20.4-4.5,20.8-4
			l0.8,0.8c0.5,0.5,1.2,0.5,1.6,0.1l3.3-3.3c0.5-0.5,0.5-1.1,0-1.6l-0.8-0.8c-0.5-0.5-0.9-0.7-1.4-0.6l-0.5,0.1l-0.7-0.7l0.3-1.1
			c0.1-0.6,0-1-0.6-1.6l-2.4-2.4c-3.5-3.5-8.1-3.4-11.2-0.3c-0.4,0.4-0.5,1-0.2,1.4c0.2,0.4,0.7,0.6,1.4,0.4c1.5-0.4,3-0.3,4.5,0.7
			l-0.6,1.6c-0.2,0.6-0.2,1.1,0,1.5L3,0.4C2.1,1.3,2,2.3,2.8,3.1z M10.7-15.1c2.7-2,6-1.7,8.4,0.7l2.6,2.6c0.2,0.2,0.3,0.4,0.2,0.7
			l-0.4,1.6L23.1-8L24-8c0.3,0,0.4,0,0.6,0.2l0.6,0.6l-2.8,2.7l-0.6-0.6c-0.2-0.2-0.2-0.3-0.2-0.6l0.1-1l-1.6-1.6l-1.6,0.3
			c-0.3,0.1-0.4,0.1-0.7-0.2l-2.2-2.2c-0.2-0.2-0.3-0.4-0.1-0.7l0.9-2.3c-1.6-1.5-3.7-2.4-5.8-1.7c-0.1,0-0.2,0-0.2,0
			C10.6-15,10.6-15.1,10.7-15.1z M4.1,2.4c-0.5-0.5-0.3-0.8,0-1.1l11-10.1l1.2,1.2L6.2,3.3c-0.3,0.3-0.7,0.4-1.1,0L4.1,2.4z"/>
	</g>
	<text transform="matrix(1 0 0 1 1289 1953)" class="st2 st3">Exporting</text>
	<text transform="matrix(1 0 0 1 1289 1971)" class="st4 st3">Symbols should be outlined when exporting to ensure the</text>
	<text transform="matrix(1 0 0 1 1289 1989)" class="st4 st3">design is preserved when submitting to Xcode.</text>
	<text id="template-version" transform="matrix(1 0 0 1 2958.8496 1933)" class="st4 st3">Template v.1.0</text>
	<text transform="matrix(1 0 0 1 2912.8359 1951)" class="st4 st3">Generated from play.fill</text>
	<text transform="matrix(1 0 0 1 2921.9238 1969)" class="st4 st3">Typeset at 100 points</text>
	<text transform="matrix(1 0 0 1 263 726)" class="st4 st3">Small</text>
	<text transform="matrix(1 0 0 1 263 1156)" class="st4 st3">Medium</text>
	<text transform="matrix(1 0 0 1 263 1586)" class="st4 st3">Large</text>
</g>
<g id="Guides">
	<g id="H-reference" transform="matrix(1 0 0 1 339 696)">
		<path class="st6" d="M54.9,0h2.7L30.6-70.5h-2.5L1,0h2.7l9.3-24.5h32.8L54.9,0z M29.2-67.1h0.2l15.4,40.4h-31L29.2-67.1z"/>
	</g>
	<line id="Baseline-S" class="st7" x1="263" y1="696" x2="3036" y2="696"/>
	<line id="Capline-S" class="st7" x1="263" y1="625.5" x2="3036" y2="625.5"/>
	<g transform="matrix(1 0 0 1 339 1126)">
		<path class="st6" d="M54.9,0h2.7L30.6-70.5h-2.5L1,0h2.7l9.3-24.5h32.8L54.9,0z M29.2-67.1h0.2l15.4,40.4h-31L29.2-67.1z"/>
	</g>
	<line id="Baseline-M" class="st7" x1="263" y1="1126" x2="3036" y2="1126"/>
	<line id="Capline-M" class="st7" x1="263" y1="1055.5" x2="3036" y2="1055.5"/>
	<g transform="matrix(1 0 0 1 339 1556)">
		<path class="st6" d="M54.9,0h2.7L30.6-70.5h-2.5L1,0h2.7l9.3-24.5h32.8L54.9,0z M29.2-67.1h0.2l15.4,40.4h-31L29.2-67.1z"/>
	</g>
	<line id="Baseline-L" class="st7" x1="263" y1="1556" x2="3036" y2="1556"/>
	<line id="Capline-L" class="st7" x1="263" y1="1485.5" x2="3036" y2="1485.5"/>
	<rect id="left-margin" x="1406.1" y="1030.8" class="st5" width="12.5" height="119.3"/>
	<rect id="right-margin" x="1492.3" y="1030.8" class="st5" width="1.3" height="119.3"/>
</g>
<g id="Symbols">
	<g id="Black-L" transform="matrix(1 0 0 1 2869.8 1556)">
		<path d="M44.9,14C43,12.2,42,9.7,42,7c0-2.6,1-5.1,2.9-6.9l35.3-35.3L44.8-70.5c-1.9-1.9-2.9-4.4-2.9-7c0-2.6,1-5.1,2.9-6.9
			c3.8-3.8,10.1-3.8,13.9,0L101-42.2c3.7,3.7,3.9,9.7,0.3,13.6L58.8,14c-1.9,1.9-4.3,2.9-7,2.9C49.2,16.9,46.7,15.9,44.9,14z"/>
	</g>
	<g id="Heavy-L" transform="matrix(1 0 0 1 2574.9 1556)">
		<path d="M43.5,13.6c-1.8-1.8-2.7-4.1-2.7-6.6c0-2.5,1-4.8,2.7-6.5l35.7-35.7L43.4-70.9c-1.8-1.8-2.7-4.1-2.7-6.6
			c0-2.5,1-4.8,2.7-6.5c3.6-3.6,9.5-3.6,13.1,0l42.3,42.2c3.5,3.5,3.6,9.1,0.2,12.9L56.6,13.6c-1.7,1.7-4.1,2.7-6.6,2.7
			C47.5,16.3,45.2,15.4,43.5,13.6z"/>
	</g>
	<g id="Bold-L" transform="matrix(1 0 0 1 2280.19 1556)">
		<path d="M41.9,13.2c-1.7-1.7-2.6-3.9-2.6-6.2c0-2.3,0.9-4.5,2.6-6.1l36.1-36.1L41.8-71.3c-1.7-1.7-2.6-3.9-2.6-6.2
			c0-2.3,0.9-4.5,2.6-6.1c3.4-3.4,8.9-3.4,12.4,0l42.3,42.2c3.3,3.3,3.4,8.6,0.2,12.1L54.2,13.2c-1.6,1.6-3.8,2.5-6.2,2.5
			C45.7,15.8,43.5,14.9,41.9,13.2z"/>
	</g>
	<g id="Semibold-L" transform="matrix(1 0 0 1 1984.87 1556)">
		<path d="M40.9,12.8c-1.6-1.6-2.4-3.6-2.4-5.8c0-2.2,0.9-4.2,2.4-5.7l36.5-36.5L40.8-71.7c-1.6-1.6-2.4-3.6-2.4-5.8
			c0-2.2,0.9-4.2,2.4-5.7c3.2-3.2,8.4-3.2,11.6,0L94.6-41c3.1,3.1,3.2,8,0.2,11.3L52.4,12.8c-1.5,1.5-3.6,2.4-5.8,2.4
			S42.4,14.4,40.9,12.8z"/>
	</g>
	<g id="Medium-L" transform="matrix(1 0 0 1 1689.21 1556)">
		<path d="M40.2,12.4C38.8,11,38,9.1,38,7c0-2,0.8-3.9,2.2-5.3l36.9-36.9L40.2-72.1c-1.4-1.4-2.2-3.4-2.2-5.4c0-2,0.8-3.9,2.2-5.3
			c3-3,7.8-3,10.8,0l42.3,42.2c2.9,2.9,3,7.5,0.2,10.5L51,12.4c-1.4,1.4-3.3,2.2-5.4,2.2C43.6,14.7,41.6,13.9,40.2,12.4z"/>
	</g>
	<g id="Regular-L" transform="matrix(1 0 0 1 1393.89 1556)">
		<path d="M76.5-35.2L39.2-72.5c-2.8-2.8-2.8-7.2,0-9.9c2.8-2.8,7.2-2.7,10,0l42.3,42.2c2.7,2.7,2.7,7,0.2,9.7L49.2,12
			c-1.4,1.4-3.2,2.1-5,2.1c-1.8,0-3.6-0.7-5-2.1c-2.8-2.8-2.8-7.2,0-9.9L76.5-35.2z"/>
	</g>
	<g id="Light-L" transform="matrix(1 0 0 1 1097.88 1556)">
		<path d="M38.9-82c-1.2,1.2-1.9,2.8-1.9,4.5c0,1.7,0.7,3.4,1.9,4.6l37.7,37.7L38.9,2.5C37.7,3.7,37,5.3,37,7c0,1.7,0.7,3.4,1.9,4.6
			c1.2,1.2,2.8,1.9,4.6,1.9s3.4-0.7,4.6-1.9l42.4-42.5c2.3-2.6,2.3-6.5-0.2-8.9L48.1-82c-1.3-1.3-2.9-1.9-4.6-1.9S40.1-83.3,38.9-82
			z"/>
	</g>
	<g id="Thin-L" transform="matrix(1 0 0 1 802.125 1556)">
		<path d="M38.3-81.6c-1.1,1.1-1.7,2.6-1.7,4.2c0,1.6,0.6,3.1,1.7,4.2l38.1,38.1L38.4,2.9C37.2,4,36.6,5.5,36.6,7
			c0,1.6,0.6,3.1,1.7,4.2c1.1,1.1,2.6,1.7,4.2,1.7s3.1-0.6,4.2-1.7l42.4-42.5c2.1-2.3,2.1-5.9-0.2-8.2L46.7-81.6
			c-1.2-1.2-2.7-1.7-4.2-1.7C41-83.3,39.5-82.8,38.3-81.6z"/>
	</g>
	<g id="Ultralight-L" transform="matrix(1 0 0 1 505.903 1556)">
		<path d="M38.2-81.2c-1,1-1.6,2.3-1.6,3.8c0,1.4,0.6,2.8,1.6,3.8l38.5,38.5L38.3,3.3c-1,1-1.6,2.3-1.6,3.8c0,1.4,0.6,2.8,1.6,3.8
			c1,1,2.4,1.6,3.8,1.6s2.8-0.6,3.8-1.6l42.4-42.5c1.9-2.1,1.9-5.4-0.2-7.4L45.8-81.2c-1.1-1-2.4-1.6-3.8-1.6
			C40.7-82.8,39.3-82.3,38.2-81.2z"/>
	</g>
	<g id="Black-M" transform="matrix(1 0 0 1 2882.06 1126)">
		<path d="M41.1,7.8c-1.7-1.7-2.6-3.9-2.6-6.2c0-2.3,0.9-4.5,2.6-6.2l31.5-31.5L41.1-67.7c-1.7-1.7-2.6-3.9-2.6-6.2
			c0-2.3,0.9-4.5,2.6-6.2c3.4-3.4,9-3.4,12.4,0l37.7,37.7c3.3,3.3,3.4,8.7,0.3,12.1l-38,38c-1.7,1.7-3.9,2.6-6.2,2.6
			C45,10.3,42.7,9.4,41.1,7.8z"/>
	</g>
	<g id="Heavy-M" transform="matrix(1 0 0 1 2587.13 1126)">
		<path d="M39.7,7.4c-1.6-1.6-2.4-3.7-2.4-5.9c0-2.2,0.9-4.3,2.4-5.8l31.9-31.9L39.7-68c-1.6-1.6-2.4-3.7-2.4-5.9
			c0-2.2,0.9-4.3,2.4-5.8c3.2-3.2,8.5-3.2,11.7,0l37.7,37.7c3.1,3.1,3.2,8.2,0.2,11.5l-37.9,38c-1.6,1.6-3.6,2.4-5.9,2.4
			S41.2,9,39.7,7.4z"/>
	</g>
	<g id="Bold-M" transform="matrix(1 0 0 1 2292.42 1126)">
		<path d="M38,7c-1.5-1.5-2.3-3.4-2.3-5.5c0-2.1,0.8-4,2.3-5.5l32.2-32.2L38-68.4c-1.5-1.5-2.3-3.4-2.3-5.5c0-2.1,0.8-4,2.3-5.5
			c3-3,8-3,11,0l37.7,37.7c2.9,2.9,3,7.7,0.2,10.8L49.1,7c-1.5,1.5-3.4,2.3-5.5,2.3S39.5,8.5,38,7z"/>
	</g>
	<g id="Semibold-M" transform="matrix(1 0 0 1 1997.08 1126)">
		<path d="M37,6.7c-1.4-1.4-2.1-3.2-2.1-5.2c0-1.9,0.8-3.8,2.1-5.1l32.6-32.6L37-68.8c-1.4-1.4-2.1-3.2-2.1-5.2
			c0-1.9,0.8-3.8,2.1-5.1c2.8-2.8,7.5-2.8,10.3,0L85-41.4c2.8,2.8,2.9,7.2,0.2,10.1l-37.9,38c-1.4,1.4-3.2,2.1-5.2,2.1
			S38.4,8.1,37,6.7z"/>
	</g>
	<g id="Medium-M" transform="matrix(1 0 0 1 1701.41 1126)">
		<path d="M36.3,6.3c-1.3-1.3-2-3-2-4.8c0-1.8,0.7-3.5,2-4.8l32.9-32.9L36.3-69.1c-1.3-1.3-2-3-2-4.8c0-1.8,0.7-3.5,2-4.8
			c2.6-2.6,7-2.6,9.6,0L83.6-41c2.6,2.6,2.7,6.7,0.2,9.4l-37.9,38c-1.3,1.3-3,2-4.8,2C39.3,8.3,37.6,7.6,36.3,6.3z"/>
	</g>
	<g id="Regular-M" transform="matrix(1 0 0 1 1406.07 1126)">
		<path d="M68.6-36.2L35.3-69.5c-2.5-2.5-2.5-6.4,0-8.9c2.5-2.5,6.4-2.4,8.9,0l37.7,37.7c2.4,2.4,2.4,6.2,0.2,8.7L44.2,6
			c-1.2,1.2-2.9,1.8-4.5,1.8c-1.6,0-3.2-0.6-4.5-1.8c-2.5-2.5-2.5-6.4,0-8.9L68.6-36.2z"/>
	</g>
	<g id="Light-M" transform="matrix(1 0 0 1 1109.99 1126)">
		<path d="M35-78c-1.1,1.1-1.7,2.5-1.7,4.1c0,1.6,0.6,3,1.7,4.1l33.7,33.6L35-2.5C34-1.5,33.3,0,33.3,1.5c0,1.6,0.6,3,1.7,4.1
			c1.1,1.1,2.5,1.7,4.1,1.7s3-0.6,4.1-1.7l37.9-37.9c2.1-2.3,2-5.8-0.2-8L43.2-78c-1.1-1.1-2.6-1.7-4.1-1.7S36.1-79.1,35-78z"/>
	</g>
	<g id="Thin-M" transform="matrix(1 0 0 1 814.137 1126)">
		<path d="M34.5-77.6c-1,1-1.5,2.3-1.6,3.7c0,1.4,0.5,2.8,1.6,3.8l34,34l-34,34c-1,1-1.5,2.3-1.5,3.7c0,1.4,0.5,2.8,1.6,3.8
			c1,1,2.3,1.5,3.7,1.5S41,6.3,42,5.3l37.9-37.9c1.9-2.1,1.8-5.3-0.2-7.3L42-77.6c-1-1-2.4-1.5-3.8-1.5
			C36.9-79.2,35.5-78.7,34.5-77.6z"/>
	</g>
	<g id="Ultralight-M" transform="matrix(1 0 0 1 517.865 1126)">
		<path d="M34.4-77.3c-0.9,0.9-1.4,2.1-1.4,3.4c0,1.3,0.5,2.5,1.4,3.4l34.4,34.3L34.5-1.8c-0.9,0.9-1.4,2.1-1.4,3.4
			c0,1.3,0.5,2.5,1.4,3.4c0.9,0.9,2.1,1.4,3.4,1.4s2.5-0.5,3.4-1.4L79.1-33c1.7-1.9,1.7-4.8-0.1-6.6L41.2-77.3
			c-0.9-0.9-2.2-1.4-3.4-1.4C36.6-78.7,35.4-78.2,34.4-77.3z"/>
	</g>
	<g id="Black-S" transform="matrix(1 0 0 1 2893.31 696)">
		<path d="M39.6,3.4C38.2,2,37.4,0,37.4-2.1c0-2.1,0.8-4,2.3-5.4l27.7-27.7L39.6-63c-1.5-1.5-2.3-3.4-2.3-5.5c0-2.1,0.8-4,2.3-5.4
			c3-3,7.9-3,10.9,0l33.2,33.2c2.9,2.9,3,7.6,0.2,10.7L50.6,3.4c-1.5,1.5-3.4,2.3-5.5,2.3C43,5.7,41.1,4.9,39.6,3.4z"/>
	</g>
	<g id="Heavy-S" transform="matrix(1 0 0 1 2597.89 696)">
		<path d="M38.7,3.1c-1.4-1.4-2.1-3.2-2.1-5.2c0-1.9,0.8-3.8,2.1-5.1l28-28.1l-28.1-28c-1.4-1.4-2.1-3.2-2.1-5.2
			c0-1.9,0.8-3.8,2.1-5.1c2.8-2.8,7.5-2.8,10.3,0l33.2,33.2c2.8,2.8,2.9,7.2,0.2,10.1L49,3.1c-1.4,1.4-3.2,2.1-5.2,2.1
			C41.9,5.2,40,4.5,38.7,3.1z"/>
	</g>
	<g id="Bold-S" transform="matrix(1 0 0 1 2302.62 696)">
		<path d="M37.5,2.8c-1.3-1.3-2-3-2-4.9c0-1.8,0.7-3.5,2-4.8l28.3-28.4L37.5-63.6c-1.3-1.3-2-3-2-4.9c0-1.8,0.7-3.5,2-4.8
			c2.7-2.7,7-2.7,9.7,0l33.2,33.2c2.6,2.6,2.7,6.7,0.2,9.5L47.2,2.8c-1.3,1.3-3,2-4.9,2S38.8,4.1,37.5,2.8z"/>
	</g>
	<g id="Semibold-S" transform="matrix(1 0 0 1 2006.91 696)">
		<path d="M36.9,2.5C35.6,1.3,35-0.3,35-2.1c0-1.7,0.7-3.3,1.9-4.5l28.7-28.7L36.8-63.9c-1.2-1.2-1.9-2.8-1.9-4.6
			c0-1.7,0.7-3.3,1.9-4.5c2.5-2.5,6.6-2.5,9.1,0l33.2,33.2c2.4,2.4,2.5,6.3,0.2,8.9L45.9,2.5c-1.2,1.2-2.8,1.9-4.5,1.9
			S38.1,3.7,36.9,2.5z"/>
	</g>
	<g id="Medium-S" transform="matrix(1 0 0 1 1710.96 696)">
		<path d="M36.4,2.2c-1.1-1.1-1.8-2.6-1.8-4.2c0-1.6,0.6-3.1,1.8-4.2l29-29l-29-29c-1.1-1.1-1.8-2.6-1.8-4.2c0-1.6,0.6-3.1,1.8-4.2
			c2.3-2.3,6.1-2.3,8.5,0L78-39.5c2.3,2.3,2.3,5.9,0.2,8.3L44.9,2.2c-1.1,1.1-2.6,1.7-4.2,1.7C39,3.9,37.5,3.3,36.4,2.2z"/>
	</g>
	<g id="Regular-S" transform="matrix(1 0 0 1 1415.23 696)">
		<path d="M65-35.2L35.7-64.5c-2.2-2.2-2.2-5.7,0-7.8c2.2-2.2,5.7-2.1,7.8,0l33.2,33.2c2.1,2.1,2.1,5.5,0.2,7.6L43.6,1.9
			c-1.1,1.1-2.5,1.6-3.9,1.6c-1.4,0-2.8-0.5-3.9-1.6c-2.2-2.2-2.2-5.7,0-7.8L65-35.2z"/>
	</g>
	<g id="Light-S" transform="matrix(1 0 0 1 1119.1 696)">
		<path d="M35.4-72c-1,1-1.5,2.2-1.5,3.6c0,1.4,0.5,2.7,1.5,3.6l29.6,29.6L35.5-5.6c-1,1-1.5,2.2-1.5,3.6c0,1.4,0.5,2.6,1.5,3.6
			c1,1,2.2,1.5,3.6,1.5s2.7-0.5,3.6-1.5L76-31.8c1.8-2,1.8-5.1-0.1-7L42.7-72c-1-1-2.3-1.5-3.6-1.5C37.7-73.5,36.4-73,35.4-72z"/>
	</g>
	<g id="Thin-S" transform="matrix(1 0 0 1 823.121 696)">
		<path d="M35-71.7c-0.9,0.9-1.4,2-1.4,3.3c0,1.2,0.5,2.4,1.4,3.3L65-35.2L35.1-5.3c-0.9,0.9-1.4,2-1.4,3.3c0,1.2,0.5,2.4,1.4,3.3
			c0.9,0.9,2,1.4,3.3,1.4c1.3,0,2.4-0.5,3.3-1.4L75-32.1c1.7-1.8,1.6-4.7-0.1-6.4L41.6-71.7c-0.9-0.9-2.1-1.4-3.3-1.4
			C37.1-73.1,35.9-72.6,35-71.7z"/>
	</g>
	<g id="Ultralight-S" transform="matrix(1 0 0 1 526.801 696)">
		<path d="M35-71.4c-0.8,0.8-1.2,1.8-1.2,2.9c0,1.1,0.4,2.2,1.2,3l30.2,30.2L35-5c-0.8,0.8-1.2,1.8-1.2,3c0,1.1,0.4,2.2,1.2,3
			c0.8,0.8,1.9,1.2,3,1.2s2.2-0.4,3-1.2l33.3-33.4c1.5-1.7,1.5-4.2-0.1-5.8L40.9-71.4c-0.8-0.8-1.9-1.2-3-1.2
			C36.9-72.6,35.8-72.2,35-71.4z"/>
	</g>
</g>
</svg>
