<?xml version="1.0" encoding="utf-8"?>
<!-- Generator: Adobe Illustrator 23.1.1, SVG Export Plug-In . SVG Version: 6.00 Build 0)  -->
<svg version="1.1" id="Layer_1" xmlns="http://www.w3.org/2000/svg" xmlns:xlink="http://www.w3.org/1999/xlink" x="0px" y="0px"
	 viewBox="0 0 3300 2200" style="enable-background:new 0 0 3300 2200;" xml:space="preserve">
<style type="text/css">
	.st0{fill:#FFFFFF;}
	.st1{fill:none;stroke:#000000;stroke-width:0.5;}
	.st2{font-family:'Arial-BoldMT';}
	.st3{font-size:12px;}
	.st4{font-family:'ArialMT';}
	.st5{opacity:0.4;fill:#00AEEF;enable-background:new    ;}
	.st6{fill:#27AAE1;}
	.st7{fill:none;stroke:#27AAE1;stroke-width:0.577;}
</style>
<g id="Notes">
	<rect id="artboard" class="st0" width="3300" height="2200"/>
	<line class="st1" x1="263" y1="292" x2="3036" y2="292"/>
	<text transform="matrix(1 0 0 1 263 322)" class="st2 st3">Weight/Scale Variations</text>
	<text transform="matrix(1 0 0 1 536.0362 322)" class="st4 st3">Ultralight</text>
	<text transform="matrix(1 0 0 1 844.7501 322)" class="st4 st3">Thin</text>
	<text transform="matrix(1 0 0 1 1140.1193 322)" class="st4 st3">Light</text>
	<text transform="matrix(1 0 0 1 1428.8282 322)" class="st4 st3">Regular</text>
	<text transform="matrix(1 0 0 1 1725.2202 322)" class="st4 st3">Medium</text>
	<text transform="matrix(1 0 0 1 2018.2563 322)" class="st4 st3">Semibold</text>
	<text transform="matrix(1 0 0 1 2327.9712 322)" class="st4 st3">Bold</text>
	<text transform="matrix(1 0 0 1 2619.6831 322)" class="st4 st3">Heavy</text>
	<text transform="matrix(1 0 0 1 2918.728 322)" class="st4 st3">Black</text>
	<line class="st1" x1="263" y1="1903" x2="3036" y2="1903"/>
	<g transform="matrix(1 0 0 1 263 1933)">
		<path d="M9.2,0.8c4.3,0,7.9-3.6,7.9-7.9c0-4.3-3.6-7.9-7.9-7.9c-4.3,0-7.9,3.6-7.9,7.9C1.4-2.7,5,0.8,9.2,0.8z M9.2-0.7
			c-3.5,0-6.4-2.8-6.4-6.4c0-3.6,2.8-6.4,6.4-6.4c3.6,0,6.4,2.8,6.4,6.4C15.7-3.5,12.8-0.7,9.2-0.7z M9.2-3.4c0.5,0,0.7-0.3,0.7-0.8
			v-2.1h2.2C12.7-6.3,13-6.6,13-7c0-0.5-0.3-0.7-0.8-0.7H10V-10c0-0.5-0.3-0.8-0.7-0.8S8.5-10.5,8.5-10v2.2H6.3
			C5.8-7.8,5.4-7.5,5.4-7c0,0.5,0.4,0.7,0.8,0.7h2.2v2.1C8.5-3.8,8.8-3.4,9.2-3.4z"/>
	</g>
	<g transform="matrix(1 0 0 1 281.506 1933)">
		<path d="M11.7,2.9c5.4,0,10-4.5,10-10c0-5.4-4.5-10-10-10c-5.4,0-10,4.5-10,10C1.7-1.6,6.3,2.9,11.7,2.9z M11.7,1.2
			c-4.6,0-8.3-3.7-8.3-8.3c0-4.6,3.7-8.3,8.3-8.3c4.6,0,8.3,3.7,8.3,8.3C20-2.4,16.3,1.2,11.7,1.2z M11.7-2.4c0.5,0,0.8-0.4,0.8-0.9
			v-2.9h3.1c0.5,0,0.9-0.3,0.9-0.8c0-0.5-0.4-0.8-0.9-0.8h-3.1v-3.1c0-0.6-0.3-0.9-0.8-0.9c-0.5,0-0.8,0.4-0.8,0.9v3.1h-3
			C7.3-7.9,6.9-7.6,6.9-7c0,0.5,0.4,0.8,0.9,0.8h3v2.9C10.9-2.8,11.2-2.4,11.7-2.4z"/>
	</g>
	<g transform="matrix(1 0 0 1 304.924 1933)">
		<path d="M15,5.7c7,0,12.7-5.8,12.7-12.7c0-7-5.8-12.7-12.7-12.7C8-19.8,2.3-14,2.3-7C2.3-0.1,8,5.7,15,5.7z M15,3.9
			C8.9,3.9,4.1-1,4.1-7c0-6,4.8-10.9,10.9-10.9c6,0,10.9,4.9,10.9,10.9C25.9-1,21,3.9,15,3.9z M15-1.1c0.6,0,0.9-0.4,0.9-1v-4.1h4.2
			c0.6,0,1-0.3,1-0.9c0-0.6-0.4-0.9-1-0.9h-4.2v-4.2c0-0.6-0.4-1-0.9-1c-0.6,0-0.9,0.4-0.9,1v4.2H9.8c-0.6,0-1,0.3-1,0.9
			c0,0.6,0.4,0.9,1,0.9h4.2v4.1C14.1-1.5,14.4-1.1,15-1.1z"/>
	</g>
	<text transform="matrix(1 0 0 1 263 1953)" class="st2 st3">Design Variations</text>
	<text transform="matrix(1 0 0 1 263 1971)" class="st4 st3">Symbols are supported in up to nine weights and three scales.</text>
	<text transform="matrix(1 0 0 1 263 1989)" class="st4 st3">For optimal layout with text and other symbols, vertically align</text>
	<text transform="matrix(1 0 0 1 263 2007)" class="st4 st3">symbols with the adjacent text.</text>
	<rect x="776" y="1919" class="st5" width="3" height="14"/>
	<g transform="matrix(1 0 0 1 779 1933)">
		<path d="M10.5,0h1.8L7.2-14.1H5.4L0.2,0h1.8l1.4-4h5.6L10.5,0z M6.3-12L6.3-12l2.3,6.4H4L6.3-12z"/>
	</g>
	<rect x="791.6" y="1919" class="st5" width="3" height="14"/>
	<text transform="matrix(1 0 0 1 776 1953)" class="st2 st3">Margins</text>
	<text transform="matrix(1 0 0 1 776 1971)" class="st4 st3">Leading and trailing margins on the left and right side of each symbol</text>
	<text transform="matrix(1 0 0 1 776 1989)" class="st4 st3">can be adjusted by modifying the width of the blue rectangles.</text>
	<text transform="matrix(1 0 0 1 776 2007)" class="st4 st3">Modifications are automatically applied proportionally to all</text>
	<text transform="matrix(1 0 0 1 776 2025)" class="st4 st3">scales and weights.</text>
	<g transform="matrix(1 0 0 1 1289 1933)">
		<path d="M2.8,3.1l1.5,1.5c0.8,0.8,1.8,0.8,2.7-0.2L17.3-6.7c0.4,0.3,0.8,0.3,1.3,0.2l1-0.2L20.3-6l0,0.5C20.2-5,20.4-4.5,20.8-4
			l0.8,0.8c0.5,0.5,1.2,0.5,1.6,0.1l3.3-3.3c0.5-0.5,0.5-1.1,0-1.6l-0.8-0.8c-0.5-0.5-0.9-0.7-1.4-0.6l-0.5,0.1l-0.7-0.7l0.3-1.1
			c0.1-0.6,0-1-0.6-1.6l-2.4-2.4c-3.5-3.5-8.1-3.4-11.2-0.3c-0.4,0.4-0.5,1-0.2,1.4c0.2,0.4,0.7,0.6,1.4,0.4c1.5-0.4,3-0.3,4.5,0.7
			l-0.6,1.6c-0.2,0.6-0.2,1.1,0,1.5L3,0.4C2.1,1.3,2,2.3,2.8,3.1z M10.7-15.1c2.7-2,6-1.7,8.4,0.7l2.6,2.6c0.2,0.2,0.3,0.4,0.2,0.7
			l-0.4,1.6L23.1-8L24-8c0.3,0,0.4,0,0.6,0.2l0.6,0.6l-2.8,2.7l-0.6-0.6c-0.2-0.2-0.2-0.3-0.2-0.6l0.1-1l-1.6-1.6l-1.6,0.3
			c-0.3,0.1-0.4,0.1-0.7-0.2l-2.2-2.2c-0.2-0.2-0.3-0.4-0.1-0.7l0.9-2.3c-1.6-1.5-3.7-2.4-5.8-1.7c-0.1,0-0.2,0-0.2,0
			C10.6-15,10.6-15.1,10.7-15.1z M4.1,2.4c-0.5-0.5-0.3-0.8,0-1.1l11-10.1l1.2,1.2L6.2,3.3c-0.3,0.3-0.7,0.4-1.1,0L4.1,2.4z"/>
	</g>
	<text transform="matrix(1 0 0 1 1289 1953)" class="st2 st3">Exporting</text>
	<text transform="matrix(1 0 0 1 1289 1971)" class="st4 st3">Symbols should be outlined when exporting to ensure the</text>
	<text transform="matrix(1 0 0 1 1289 1989)" class="st4 st3">design is preserved when submitting to Xcode.</text>
	<text id="template-version" transform="matrix(1 0 0 1 2958.8496 1933)" class="st4 st3">Template v.1.0</text>
	<text transform="matrix(1 0 0 1 2911.9336 1951)" class="st4 st3">Generated from person</text>
	<text transform="matrix(1 0 0 1 2921.9238 1969)" class="st4 st3">Typeset at 100 points</text>
	<text transform="matrix(1 0 0 1 263 726)" class="st4 st3">Small</text>
	<text transform="matrix(1 0 0 1 263 1156)" class="st4 st3">Medium</text>
	<text transform="matrix(1 0 0 1 263 1586)" class="st4 st3">Large</text>
</g>
<g id="Guides">
	<g id="H-reference" transform="matrix(1 0 0 1 339 696)">
		<path class="st6" d="M54.9,0h2.7L30.6-70.5h-2.5L1,0h2.7l9.3-24.5h32.8L54.9,0z M29.2-67.1h0.2l15.4,40.4h-31L29.2-67.1z"/>
	</g>
	<line id="Baseline-S" class="st7" x1="263" y1="696" x2="3036" y2="696"/>
	<line id="Capline-S" class="st7" x1="263" y1="625.5" x2="3036" y2="625.5"/>
	<g transform="matrix(1 0 0 1 339 1126)">
		<path class="st6" d="M54.9,0h2.7L30.6-70.5h-2.5L1,0h2.7l9.3-24.5h32.8L54.9,0z M29.2-67.1h0.2l15.4,40.4h-31L29.2-67.1z"/>
	</g>
	<line id="Baseline-M" class="st7" x1="263" y1="1126" x2="3036" y2="1126"/>
	<line id="Capline-M" class="st7" x1="263" y1="1055.5" x2="3036" y2="1055.5"/>
	<g transform="matrix(1 0 0 1 339 1556)">
		<path class="st6" d="M54.9,0h2.7L30.6-70.5h-2.5L1,0h2.7l9.3-24.5h32.8L54.9,0z M29.2-67.1h0.2l15.4,40.4h-31L29.2-67.1z"/>
	</g>
	<line id="Baseline-L" class="st7" x1="263" y1="1556" x2="3036" y2="1556"/>
	<line id="Capline-L" class="st7" x1="263" y1="1485.5" x2="3036" y2="1485.5"/>
	<rect id="left-margin" x="1394.7" y="1030.8" class="st5" width="12.5" height="119.3"/>
	<rect id="right-margin" x="1492.5" y="1030.8" class="st5" width="12.5" height="119.3"/>
</g>
<g id="Symbols">
	<g id="Black-L" transform="matrix(1 0 0 1 2860.62 1556)">
		<path d="M22.3,26.1c-0.8,0-1.6-0.1-2.3-0.3c-2.2-0.6-4-2.1-5.2-4.1s-1.4-4.3-0.8-6.5C18.3,0,30-12.6,46-19.3
			c-10.8-8.3-17.2-21.1-17.2-34.9c0-24.2,19.7-43.9,43.9-43.9c24.2,0,43.9,19.7,43.9,43.9c0,13.8-6.5,26.7-17.3,35
			c15.9,6.7,27.6,19.2,31.8,34.4c0.6,2.2,0.4,4.5-0.8,6.5c-1.1,2-3,3.4-5.2,4.1c-2.2,0.6-4.5,0.4-6.5-0.8c-2-1.1-3.4-3-4.1-5.2
			c-4.5-16-21.8-27.2-42.1-27.2C52.7-7.5,35,4,30.6,19.8C29.5,23.5,26.1,26.1,22.3,26.1z M72.8-81C58-81,46-69,46-54.2
			c0,14.8,12,26.8,26.8,26.8c14.8,0,26.8-12,26.8-26.8C99.5-69,87.5-81,72.8-81z"/>
	</g>
	<g id="Heavy-L" transform="matrix(1 0 0 1 2564.42 1556)">
		<path d="M21.7,24.5c-0.7,0-1.4-0.1-2.1-0.3c-2-0.6-3.7-1.9-4.8-3.7c-1-1.8-1.3-4-0.7-6c4.3-15.4,16.4-28,32.7-34.6
			c-11.2-8.1-17.9-21.1-17.9-35c0-23.9,19.4-43.3,43.3-43.3c23.9,0,43.3,19.4,43.3,43.3c0,14-6.8,27-18,35.1
			C113.7-13.5,125.7-1,130,14.3v0c0,0,0,0,0,0l0,0c0.6,2,0.3,4.2-0.7,6c-1,1.8-2.7,3.2-4.8,3.8c-2,0.6-4.2,0.3-6-0.7
			c-1.8-1-3.2-2.7-3.8-4.8C110.1,2.3,92.6-9.1,72-9.1c-20.3,0-38.2,11.7-42.7,27.8C28.4,22.1,25.2,24.5,21.7,24.5z M72.2-82.6
			c-15.1,0-27.4,12.3-27.4,27.4c0,15.1,12.3,27.4,27.4,27.4c15.1,0,27.4-12.3,27.4-27.4C99.6-70.3,87.3-82.6,72.2-82.6z"/>
	</g>
	<g id="Bold-L" transform="matrix(1 0 0 1 2268.27 1556)">
		<path d="M21.1,23.9c-0.7,0-1.3-0.1-2-0.3c-1.9-0.5-3.4-1.7-4.4-3.4c-1-1.7-1.2-3.6-0.7-5.5c4.3-15.6,16.7-28.2,33.5-34.6
			C36-27.7,29-40.9,29-55.1c0-23.5,19.1-42.6,42.6-42.6c23.5,0,42.6,19.1,42.6,42.6c0,14.2-7.1,27.4-18.7,35.3
			c16.6,6.3,28.9,19,33.3,34.4c0.5,1.9,0.3,3.8-0.6,5.5c-0.9,1.7-2.5,2.9-4.4,3.4c-1.9,0.5-3.8,0.3-5.5-0.6
			c-1.7-0.9-2.9-2.5-3.4-4.4C110.1,2,92.3-9.6,71.5-9.6c-20.5,0-38.8,11.9-43.4,28.3C27.3,21.8,24.4,23.9,21.1,23.9z M71.6-83.2
			c-15.5,0-28.1,12.6-28.1,28.1c0,15.5,12.6,28.1,28.1,28.1s28.1-12.6,28.1-28.1C99.7-70.6,87.1-83.2,71.6-83.2z"/>
	</g>
	<g id="Semibold-L" transform="matrix(1 0 0 1 1971.95 1556)">
		<path d="M20.8,23.8c-0.6,0-1.2-0.1-1.8-0.2c-1.7-0.5-3.1-1.6-4-3.1c-0.9-1.5-1.1-3.3-0.6-5c4.4-15.7,17.1-28.5,34.3-34.6
			c-12.1-7.7-19.4-21-19.4-35.4c0-23.1,18.8-41.9,41.9-41.9c23.1,0,42,18.8,42,41.9c0,14.4-7.4,27.8-19.6,35.4
			c17.1,6.1,29.7,18.8,34.1,34.4l0,0c0.5,1.7,0.3,3.5-0.6,5c-0.9,1.5-2.3,2.6-4,3.1c-1.7,0.5-3.5,0.3-5-0.6c-1.5-0.9-2.6-2.3-3.1-4
			C110.4,2,92.3-9.8,71.2-9.8c-20.8,0-39.3,12.1-44,28.8C26.4,21.8,23.8,23.8,20.8,23.8z M71.3-83.3c-15.9,0-28.8,12.9-28.8,28.8
			c0,15.9,12.9,28.8,28.8,28.8c15.9,0,28.8-12.9,28.8-28.8C100.1-70.4,87.2-83.3,71.3-83.3z"/>
	</g>
	<g id="Medium-L" transform="matrix(1 0 0 1 1675.54 1556)">
		<path d="M20.6,21.4c-0.5,0-1.1-0.1-1.6-0.2c-1.5-0.4-2.8-1.4-3.6-2.8c-0.8-1.4-1-3-0.5-4.5c4.4-15.9,17.6-28.8,35.2-34.6
			c-12.6-7.4-20.3-20.9-20.3-35.6C29.8-79,48.3-97.6,71-97.6c22.8,0,41.3,18.5,41.3,41.3c0,14.7-7.8,28.2-20.4,35.6
			c17.5,5.8,30.6,18.6,35,34.4l0,0c0.4,1.5,0.2,3.1-0.5,4.5c-0.8,1.4-2,2.4-3.6,2.8c-1.5,0.4-3.1,0.2-4.5-0.5
			c-1.4-0.8-2.4-2-2.8-3.6c-4.9-17.2-23.2-29.2-44.6-29.2C49.8-12.2,31,0.1,26.3,17.1C25.6,19.6,23.2,21.4,20.6,21.4z M71-85.7
			c-16.2,0-29.4,13.2-29.4,29.4c0,16.2,13.2,29.4,29.4,29.4c16.2,0,29.4-13.2,29.4-29.4C100.5-72.5,87.3-85.7,71-85.7z"/>
	</g>
	<g id="Regular-L" transform="matrix(1 0 0 1 1379.21 1556)">
		<path d="M125.9,13.9c-4.6-16.3-18.4-29-36.1-34.4c12.7-6.9,21.4-20.3,21.4-35.8c0-22.4-18.2-40.6-40.6-40.6
			C48.2-96.9,30-78.7,30-56.3c0,15.4,8.6,28.9,21.3,35.7C33.6-15.2,19.7-2.4,15.1,14c-0.8,2.8,0.9,5.7,3.6,6.5
			c0.5,0.1,0.9,0.2,1.4,0.2c2.3,0,4.4-1.5,5.1-3.8C30-0.4,49.1-12.9,70.5-12.9c21.7,0,40.3,12.2,45.3,29.6c0.8,2.8,3.7,4.4,6.5,3.6
			C125.1,19.6,126.7,16.7,125.9,13.9 M40.5-56.3c0-16.6,13.5-30.1,30.1-30.1s30.1,13.5,30.1,30.1S87.2-26.2,70.6-26.2
			S40.5-39.7,40.5-56.3"/>
	</g>
	<g id="Light-L" transform="matrix(1 0 0 1 1083.16 1556)">
		<path d="M69.9-96.2c-22,0-40,17.9-40,40c0,14.7,8,28.1,21,35.1l1.4,0.8l-1.5,0.5c-18,5.5-31.3,18.2-35.8,34.1
			c-0.3,1.2-0.2,2.4,0.4,3.5c0.6,1.1,1.6,1.8,2.8,2.2c2.4,0.7,5-0.8,5.7-3.2c4.9-17.5,24.2-30.2,45.9-30.2c22,0,40.9,12.4,45.9,30.1
			c0.3,1.2,1.1,2.2,2.2,2.8c1.1,0.6,2.3,0.7,3.5,0.4c1.2-0.3,2.2-1.1,2.8-2.2c0.6-1.1,0.7-2.3,0.4-3.5l0,0
			c-4.5-15.8-17.8-28.5-35.6-34l-1.5-0.5l1.4-0.8c13-7,21.1-20.5,21.1-35.2C109.9-78.3,92-96.2,69.9-96.2z M69.9-25.5
			c-17,0-30.8-13.8-30.8-30.8C39.2-73.2,53-87,69.9-87c17,0,30.8,13.8,30.8,30.8C100.7-39.3,86.9-25.5,69.9-25.5z"/>
	</g>
	<g id="Thin-L" transform="matrix(1 0 0 1 787.306 1556)">
		<path d="M69.3-95.6C47.6-95.6,30-77.9,30-56.3c0,14.4,7.9,27.7,20.6,34.6l2.8,1.5l-3,0.9c-17.7,5.4-31,18-35.3,33.7
			c-0.3,1-0.2,2.1,0.4,3c0.5,0.9,1.4,1.6,2.4,1.9c2.1,0.6,4.3-0.7,4.8-2.7c5-17.8,24.6-30.7,46.6-30.7c22.3,0,41.4,12.6,46.5,30.6
			c0.3,1,0.9,1.8,1.9,2.4c0.9,0.5,2,0.6,3,0.4c1-0.3,1.8-0.9,2.4-1.9c0.5-0.9,0.6-2,0.4-3l0,0c-4.4-15.6-17.6-28.1-35.2-33.5l-3-0.9
			l2.8-1.5c12.8-6.9,20.7-20.1,20.7-34.6C108.6-77.9,91-95.6,69.3-95.6z M69.3-24.8c-17.3,0-31.4-14.1-31.4-31.4
			c0-17.3,14.1-31.4,31.4-31.4c17.3,0,31.4,14.1,31.4,31.4C100.7-38.9,86.6-24.8,69.3-24.8z"/>
	</g>
	<g id="Ultralight-L" transform="matrix(1 0 0 1 491.034 1556)">
		<path d="M68.9-94.9c-21.3,0-38.6,17.3-38.6,38.6c0,14.2,7.8,27.2,20.3,34l4.2,2.3l-4.6,1.4C32.6-13.3,19.6-0.9,15.3,14.6
			c-0.2,0.8-0.1,1.7,0.3,2.5c0.4,0.8,1.1,1.3,2,1.5c1.7,0.5,3.5-0.6,4-2.3c5.1-18.1,24.9-31.2,47.2-31.2c22.6,0,42,12.8,47.2,31.1
			c0.2,0.8,0.8,1.5,1.5,2c0.8,0.4,1.6,0.5,2.5,0.3c0.8-0.2,1.5-0.8,2-1.5c0.4-0.8,0.5-1.6,0.3-2.5l0,0
			c-4.3-15.4-17.3-27.7-34.7-33.1L82.9-20l4.2-2.3c12.6-6.8,20.4-19.8,20.4-34C107.5-77.6,90.2-94.9,68.9-94.9z M68.9-24.2
			c-17.7,0-32.1-14.4-32.1-32.1c0-17.7,14.4-32.1,32.1-32.1C86.6-88.4,101-74,101-56.3C101-38.6,86.6-24.2,68.9-24.2z"/>
	</g>
	<g id="Black-M" transform="matrix(1 0 0 1 2876.66 1126)">
		<path d="M18.9,14.5c-0.6,0-1.2-0.1-1.7-0.2c-1.7-0.5-3-1.5-3.9-3S12.2,8,12.7,6.3c3.2-11.5,12-20.9,24.1-26
			c-8.1-6.2-13-15.9-13-26.2c0-18.2,14.8-33,33-33c18.2,0,33,14.8,33,33c0,10.4-4.9,20.1-13,26.3c11.9,5.1,20.7,14.5,23.9,25.8
			c0.5,1.7,0.3,3.4-0.6,4.9c-0.8,1.5-2.2,2.6-3.9,3.1c-1.7,0.5-3.4,0.3-4.9-0.6c-1.5-0.8-2.6-2.2-3.1-3.9
			c-3.4-12-16.4-20.5-31.6-20.5c-15,0-28.3,8.6-31.6,20.5C24.3,12.6,21.8,14.5,18.9,14.5z M56.8-66c-11.1,0-20.1,9-20.1,20.1
			c0,11.1,9,20.1,20.1,20.1c11.1,0,20.1-9,20.1-20.1C77-57,67.9-66,56.8-66z"/>
	</g>
	<g id="Heavy-M" transform="matrix(1 0 0 1 2580.34 1126)">
		<path d="M18.4,13c-0.5,0-1.1-0.1-1.6-0.2c-1.5-0.4-2.8-1.4-3.6-2.8c-0.8-1.4-1-3-0.5-4.5c3.2-11.6,12.3-21.1,24.6-26
			c-8.4-6.1-13.5-15.8-13.5-26.4c0-17.9,14.6-32.5,32.5-32.5c17.9,0,32.5,14.6,32.5,32.5c0,10.6-5.1,20.3-13.5,26.4
			C87.6-15.5,96.6-6.1,99.8,5.4v0c0,0,0,0,0,0l0,0c0.4,1.5,0.2,3.1-0.5,4.5c-0.8,1.4-2,2.4-3.6,2.8c-1.5,0.4-3.1,0.2-4.5-0.5
			c-1.4-0.8-2.4-2-2.8-3.6C84.9-3.6,71.7-12.2,56.3-12.2C41-12.2,27.5-3.4,24.1,8.7C23.4,11.3,21.1,13,18.4,13z M56.3-67.5
			c-11.4,0-20.6,9.3-20.6,20.6c0,11.4,9.3,20.6,20.6,20.6c11.4,0,20.6-9.3,20.6-20.6C77-58.2,67.7-67.5,56.3-67.5z"/>
	</g>
	<g id="Bold-M" transform="matrix(1 0 0 1 2284.07 1126)">
		<path d="M18,12.7c-0.5,0-1-0.1-1.5-0.2c-1.4-0.4-2.6-1.3-3.3-2.6c-0.7-1.3-0.9-2.7-0.5-4.1c3.3-11.7,12.6-21.2,25.2-26
			c-8.7-5.9-14-15.8-14-26.5c0-17.7,14.4-32,32-32c17.7,0,32,14.4,32,32c0,10.7-5.3,20.6-14.1,26.5c12.5,4.8,21.8,14.2,25,25.9
			c0.4,1.4,0.2,2.9-0.5,4.1c-0.7,1.3-1.9,2.2-3.3,2.6c-1.4,0.4-2.9,0.2-4.1-0.5c-1.3-0.7-2.2-1.9-2.6-3.3
			C84.9-3.9,71.5-12.6,55.8-12.6c-15.4,0-29.2,8.9-32.6,21.3C22.6,11,20.4,12.7,18,12.7z M55.9-67.9c-11.7,0-21.1,9.5-21.1,21.1
			c0,11.7,9.5,21.1,21.1,21.1S77-35.1,77-46.7C77-58.4,67.6-67.9,55.9-67.9z"/>
	</g>
	<g id="Semibold-M" transform="matrix(1 0 0 1 1987.65 1126)">
		<path d="M17.8,12.7c-0.4,0-0.9-0.1-1.3-0.2c-1.3-0.4-2.3-1.2-3-2.3C12.8,9,12.6,7.7,13,6.4c3.3-11.8,12.9-21.4,25.8-26
			c-9.1-5.8-14.6-15.8-14.6-26.6c0-17.4,14.1-31.5,31.5-31.5c17.4,0,31.5,14.1,31.5,31.5c0,10.9-5.6,20.9-14.7,26.7
			C85.4-15,94.9-5.4,98.2,6.3l0,0c0.4,1.3,0.2,2.6-0.4,3.8c-0.6,1.2-1.7,2-3,2.3c-1.3,0.4-2.6,0.2-3.8-0.4c-1.2-0.6-2-1.7-2.3-3
			C85.1-3.7,71.5-12.6,55.6-12.6C40-12.6,26-3.5,22.5,9.1C21.9,11.2,20,12.7,17.8,12.7z M55.7-67.9c-11.9,0-21.6,9.7-21.6,21.6
			c0,11.9,9.7,21.6,21.6,21.6c11.9,0,21.6-9.7,21.6-21.6C77.3-58.1,67.6-67.9,55.7-67.9z"/>
	</g>
	<g id="Medium-M" transform="matrix(1 0 0 1 1691.16 1126)">
		<path d="M17.6,10.4c-0.4,0-0.8-0.1-1.2-0.2c-1.1-0.3-2.1-1.1-2.7-2.1c-0.6-1-0.7-2.2-0.4-3.4c3.3-12,13.2-21.6,26.5-26
			c-9.5-5.6-15.3-15.7-15.3-26.7c0-17.1,13.9-31,31-31c17.1,0,31,13.9,31,31c0,11-5.9,21.2-15.4,26.8c13.2,4.4,23,14,26.4,25.9l0,0
			c0.3,1.1,0.2,2.3-0.4,3.4c-0.6,1-1.5,1.8-2.7,2.1c-1.1,0.3-2.3,0.2-3.4-0.4c-1-0.6-1.8-1.5-2.1-2.7C85.3-5.8,71.5-14.8,55.4-14.8
			c-15.9,0-30,9.2-33.6,22C21.3,9.1,19.6,10.4,17.6,10.4z M55.5-70.1c-12.2,0-22.1,9.9-22.1,22.1c0,12.2,9.9,22.1,22.1,22.1
			c12.2,0,22.1-9.9,22.1-22.1C77.7-60.2,67.7-70.1,55.5-70.1z"/>
	</g>
	<g id="Regular-M" transform="matrix(1 0 0 1 1394.74 1126)">
		<path d="M96.8,4.8C93.3-7.5,82.9-17,69.6-21c9.6-5.2,16.1-15.3,16.1-26.9c0-16.8-13.7-30.5-30.5-30.5c-16.8,0-30.5,13.7-30.5,30.5
			c0,11.6,6.5,21.7,16,26.9C27.3-17,16.9-7.4,13.5,4.9c-0.6,2.1,0.6,4.3,2.7,4.9c0.4,0.1,0.7,0.1,1.1,0.1c1.7,0,3.3-1.1,3.8-2.9
			c3.6-13,17.9-22.4,34-22.4c16.3,0,30.3,9.2,34,22.3c0.6,2.1,2.8,3.3,4.9,2.7C96.1,9.1,97.3,6.9,96.8,4.8 M32.6-47.9
			c0-12.5,10.2-22.6,22.6-22.6s22.6,10.2,22.6,22.6S67.7-25.3,55.2-25.3S32.6-35.5,32.6-47.9"/>
	</g>
	<g id="Light-M" transform="matrix(1 0 0 1 1098.62 1126)">
		<path d="M54.6-78c-16.6,0-30,13.5-30,30c0,11,6,21.2,15.8,26.4l1.1,0.6l-1.1,0.3C26.7-16.5,16.7-6.9,13.3,5.1
			c-0.2,0.9-0.1,1.8,0.3,2.6c0.5,0.8,1.2,1.4,2.1,1.6C17.5,9.9,19.5,8.7,20,7c3.7-13.2,18.2-22.7,34.5-22.7C71-15.8,85.2-6.4,89,6.9
			c0.2,0.9,0.8,1.6,1.6,2.1c0.8,0.5,1.7,0.6,2.6,0.3c0.9-0.2,1.6-0.8,2.1-1.6c0.5-0.8,0.6-1.7,0.3-2.6l0,0
			C92.3-6.9,82.3-16.4,68.9-20.5l-1.1-0.4l1.1-0.6c9.8-5.3,15.9-15.4,15.9-26.5C84.6-64.5,71.2-78,54.6-78z M54.6-24.8
			c-12.8,0-23.1-10.4-23.1-23.1C31.5-60.7,41.8-71,54.6-71c12.8,0,23.1,10.4,23.1,23.1C77.7-35.2,67.3-24.8,54.6-24.8z"/>
	</g>
	<g id="Thin-M" transform="matrix(1 0 0 1 802.662 1126)">
		<path d="M54-77.5c-16.3,0-29.5,13.3-29.5,29.5c0,10.8,5.9,20.8,15.5,26l2.1,1.1l-2.3,0.7C26.5-16.1,16.5-6.6,13.2,5.2
			C13,6,13.1,6.8,13.5,7.4c0.4,0.7,1,1.2,1.8,1.4c1.6,0.4,3.2-0.5,3.6-2c3.7-13.4,18.5-23.1,35-23.1c16.8,0,31.2,9.5,35,23
			c0.2,0.8,0.7,1.4,1.4,1.8C91,8.9,91.8,9,92.6,8.8C93.3,8.5,94,8,94.4,7.4c0.4-0.7,0.5-1.5,0.3-2.2l0,0C91.3-6.6,81.4-16,68.2-20.1
			l-2.3-0.7l2.1-1.1c9.6-5.2,15.6-15.1,15.6-26C83.6-64.2,70.3-77.5,54-77.5z M54-24.3c-13,0-23.6-10.6-23.6-23.6
			C30.4-61,41-71.6,54-71.6c13,0,23.6,10.6,23.6,23.6C77.7-34.9,67.1-24.3,54-24.3z"/>
	</g>
	<g id="Ultralight-M" transform="matrix(1 0 0 1 506.342 1126)">
		<path d="M53.7-77c-16,0-29,13-29,29c0,10.7,5.8,20.4,15.2,25.5l3.2,1.7l-3.4,1c-13.2,4-23,13.3-26.2,25c-0.2,0.6-0.1,1.3,0.2,1.9
			s0.8,1,1.5,1.2c1.3,0.4,2.7-0.4,3-1.7c3.8-13.6,18.7-23.4,35.5-23.4c17,0,31.6,9.6,35.5,23.4c0.2,0.6,0.6,1.2,1.2,1.5
			s1.2,0.4,1.9,0.2c0.6-0.2,1.2-0.6,1.5-1.2c0.3-0.6,0.4-1.2,0.2-1.9l0,0c-3.3-11.5-13-20.8-26.1-24.9l-3.4-1.1l3.2-1.7
			c9.5-5.1,15.3-14.9,15.3-25.6C82.7-64,69.7-77,53.7-77z M53.7-23.8c-13.3,0-24.1-10.8-24.1-24.1c0-13.3,10.8-24.1,24.1-24.1
			c13.3,0,24.1,10.8,24.1,24.1C77.8-34.6,67-23.8,53.7-23.8z"/>
	</g>
	<g id="Black-S" transform="matrix(1 0 0 1 2888.97 696)">
		<path d="M15.1,0.8c-0.5,0-0.9-0.1-1.3-0.2c-1.3-0.4-2.3-1.2-3-2.3S10-4.2,10.3-5.5c2.5-8.8,9.3-16.1,18.5-20
			c-6.2-4.8-10-12.2-10-20.2c0-14,11.4-25.4,25.4-25.4c14,0,25.4,11.4,25.4,25.4c0,8-3.8,15.5-10,20.2c9.2,3.9,16,11.1,18.4,19.9
			c0.4,1.3,0.2,2.6-0.4,3.8c-0.6,1.2-1.7,2-3,2.4C73.5,1,72.1,0.8,71,0.1c-1.2-0.6-2-1.7-2.4-3C66-12.1,56-18.6,44.3-18.6
			c-11.6,0-21.8,6.6-24.4,15.8C19.3-0.7,17.3,0.8,15.1,0.8z M44.3-61.2c-8.5,0-15.5,7-15.5,15.5c0,8.5,7,15.5,15.5,15.5
			c8.5,0,15.5-7,15.5-15.5C59.8-54.2,52.9-61.2,44.3-61.2z"/>
	</g>
	<g id="Heavy-S" transform="matrix(1 0 0 1 2592.48 696)">
		<path d="M14.8-0.5c-0.4,0-0.8-0.1-1.2-0.2c-1.2-0.3-2.2-1.1-2.8-2.2c-0.6-1.1-0.8-2.3-0.4-3.5c2.5-8.9,9.5-16.2,18.9-20
			C22.9-31,19-38.5,19-46.6C19-60.5,30.2-71.7,44-71.7c13.8,0,25.1,11.2,25.1,25.1c0,8.1-3.9,15.7-10.4,20.3
			C68.1-22.5,75-15.2,77.5-6.4v0c0,0,0,0,0,0l0,0c0.3,1.2,0.2,2.4-0.4,3.5c-0.6,1.1-1.6,1.8-2.8,2.2c-1.2,0.3-2.4,0.2-3.5-0.4
			c-1.1-0.6-1.8-1.6-2.2-2.8C66-13.4,55.8-20,44-20c-11.7,0-22.1,6.8-24.7,16.1C18.7-1.9,16.9-0.5,14.8-0.5z M44-62.5
			c-8.8,0-15.9,7.1-15.9,15.9c0,8.8,7.1,15.9,15.9,15.9c8.8,0,15.9-7.1,15.9-15.9C59.9-55.4,52.8-62.5,44-62.5z"/>
	</g>
	<g id="Bold-S" transform="matrix(1 0 0 1 2296.03 696)">
		<path d="M14.6-0.8c-0.4,0-0.8-0.1-1.1-0.2c-1.1-0.3-2-1-2.5-2c-0.6-1-0.7-2.1-0.4-3.2c2.5-9,9.7-16.3,19.4-20
			c-6.7-4.6-10.8-12.2-10.8-20.4c0-13.6,11.1-24.7,24.7-24.7c13.6,0,24.7,11.1,24.7,24.7c0,8.2-4.1,15.9-10.9,20.4
			c9.6,3.7,16.8,11,19.3,19.9C77.2-5.1,77-4,76.5-3c-0.5,1-1.4,1.7-2.5,2c-1.1,0.3-2.2,0.2-3.2-0.4c-1-0.5-1.7-1.4-2-2.5
			c-2.7-9.6-13-16.3-25.1-16.3c-11.9,0-22.5,6.9-25.1,16.4C18.1-2,16.4-0.8,14.6-0.8z M43.8-62.8c-9,0-16.3,7.3-16.3,16.3
			c0,9,7.3,16.3,16.3,16.3S60-37.5,60-46.5C60-55.5,52.7-62.8,43.8-62.8z"/>
	</g>
	<g id="Semibold-S" transform="matrix(1 0 0 1 1999.49 696)">
		<path d="M14.5-0.6c-0.3,0-0.7,0-1-0.1c-1-0.3-1.8-0.9-2.3-1.8c-0.5-0.9-0.6-1.9-0.3-2.9c2.5-9.1,9.9-16.5,19.9-20
			C23.7-30,19.4-37.7,19.4-46c0-13.4,10.9-24.3,24.3-24.3C57.1-70.3,68-59.4,68-46c0,8.4-4.3,16.1-11.3,20.5
			c9.9,3.5,17.2,10.9,19.8,19.9l0,0c0.3,1,0.2,2-0.3,2.9c-0.5,0.9-1.3,1.5-2.3,1.8c-1,0.3-2,0.2-2.9-0.3c-0.9-0.5-1.5-1.3-1.8-2.3
			c-2.8-9.8-13.2-16.6-25.5-16.6c-12.1,0-22.8,7-25.5,16.6C17.7-1.8,16.2-0.6,14.5-0.6z M43.7-62.7C34.5-62.7,27-55.2,27-46
			c0,9.2,7.5,16.7,16.7,16.7c9.2,0,16.7-7.5,16.7-16.7C60.4-55.2,52.9-62.7,43.7-62.7z"/>
	</g>
	<g id="Medium-S" transform="matrix(1 0 0 1 1702.93 696)">
		<path d="M14.4-2.8c-0.3,0-0.6,0-0.9-0.1c-0.9-0.2-1.6-0.8-2.1-1.6c-0.4-0.8-0.6-1.7-0.3-2.6c2.6-9.2,10.2-16.6,20.4-20
			c-7.3-4.3-11.8-12.1-11.8-20.6c0-13.2,10.7-23.9,23.9-23.9c13.2,0,23.9,10.7,23.9,23.9c0,8.5-4.5,16.3-11.8,20.6
			c10.2,3.4,17.7,10.8,20.3,19.9l0,0c0.2,0.9,0.1,1.8-0.3,2.6c-0.4,0.8-1.2,1.4-2.1,1.6c-0.9,0.2-1.8,0.1-2.6-0.3
			c-0.8-0.4-1.4-1.2-1.6-2.1c-2.8-9.9-13.4-16.9-25.8-16.9c-12.2,0-23.1,7.1-25.8,16.9C17.3-3.8,15.9-2.8,14.4-2.8z M43.6-64.8
			c-9.4,0-17,7.6-17,17c0,9.4,7.6,17,17,17c9.4,0,17-7.6,17-17C60.6-57.1,53-64.8,43.6-64.8z"/>
	</g>
	<g id="Regular-S" transform="matrix(1 0 0 1 1406.39 696)">
		<path d="M75.4-7.1C72.7-16.5,64.7-23.9,54.5-27c7.4-4,12.4-11.8,12.4-20.7c0-13-10.5-23.5-23.5-23.5c-13,0-23.5,10.5-23.5,23.5
			c0,8.9,5,16.7,12.3,20.7c-10.3,3.1-18.3,10.5-21,20c-0.5,1.6,0.5,3.3,2.1,3.8c0.3,0.1,0.5,0.1,0.8,0.1c1.3,0,2.6-0.9,2.9-2.2
			c2.8-10,13.8-17.2,26.2-17.2c12.6,0,23.3,7.1,26.2,17.2c0.5,1.6,2.1,2.6,3.8,2.1C74.9-3.8,75.8-5.5,75.4-7.1 M26-47.7
			c0-9.6,7.8-17.4,17.4-17.4s17.4,7.8,17.4,17.4S53-30.3,43.4-30.3S26-38.1,26-47.7"/>
	</g>
	<g id="Light-S" transform="matrix(1 0 0 1 1110.19 696)">
		<path d="M42.8-70.8c-12.8,0-23.1,10.4-23.1,23.1c0,8.5,4.7,16.3,12.1,20.3l0.8,0.4l-0.9,0.3C21.4-23.5,13.6-16.1,11.1-6.9
			c-0.2,0.7-0.1,1.4,0.2,2c0.3,0.6,0.9,1.1,1.6,1.3c1.4,0.4,2.9-0.5,3.3-1.8c2.8-10.1,14-17.5,26.6-17.5c12.7,0,23.7,7.2,26.6,17.4
			c0.2,0.7,0.6,1.2,1.3,1.6c0.6,0.3,1.3,0.4,2,0.2c0.7-0.2,1.3-0.6,1.6-1.3c0.3-0.6,0.4-1.3,0.2-2l0,0c-2.6-9.1-10.3-16.5-20.6-19.7
			L53-26.9l0.8-0.4C61.3-31.4,66-39.2,66-47.7C66-60.4,55.6-70.8,42.8-70.8z M42.8-29.9c-9.8,0-17.8-8-17.8-17.8
			c0-9.8,8-17.8,17.8-17.8c9.8,0,17.8,8,17.8,17.8C60.7-37.9,52.7-29.9,42.8-29.9z"/>
	</g>
	<g id="Thin-S" transform="matrix(1 0 0 1 814.137 696)">
		<path d="M42.4-70.5c-12.5,0-22.7,10.2-22.7,22.7c0,8.3,4.6,16,11.9,20l1.6,0.9l-1.8,0.5C21.2-23.2,13.5-15.9,11-6.8
			c-0.2,0.6-0.1,1.2,0.2,1.7C11.5-4.5,12-4.2,12.6-4c1.2,0.3,2.5-0.4,2.8-1.6c2.9-10.3,14.2-17.8,27-17.8c12.9,0,24,7.3,26.9,17.7
			c0.2,0.6,0.5,1.1,1.1,1.4c0.5,0.3,1.1,0.4,1.7,0.2c0.6-0.2,1.1-0.5,1.4-1.1c0.3-0.5,0.4-1.1,0.2-1.7l0,0
			c-2.5-9-10.2-16.3-20.4-19.4l-1.8-0.5l1.6-0.9c7.4-4,12-11.7,12-20C65.1-60.3,54.9-70.5,42.4-70.5z M42.4-29.5
			c-10,0-18.2-8.2-18.2-18.2c0-10,8.2-18.2,18.2-18.2c10,0,18.2,8.2,18.2,18.2C60.6-37.7,52.4-29.5,42.4-29.5z"/>
	</g>
	<g id="Ultralight-S" transform="matrix(1 0 0 1 517.792 696)">
		<path d="M42-70.1c-12.3,0-22.4,10-22.4,22.4c0,8.2,4.5,15.7,11.7,19.7l2.4,1.3l-2.6,0.8C21.1-22.8,13.5-15.7,11-6.7
			c-0.1,0.5-0.1,1,0.2,1.4c0.2,0.4,0.7,0.8,1.1,0.9c1,0.3,2.1-0.3,2.3-1.3C17.6-16.1,29.1-23.7,42-23.7c13.1,0,24.3,7.4,27.3,18
			c0.1,0.5,0.5,0.9,0.9,1.1c0.4,0.2,1,0.3,1.4,0.2c0.5-0.1,0.9-0.5,1.1-0.9c0.2-0.4,0.3-0.9,0.2-1.4l0,0c-2.5-8.9-10-16-20.1-19.1
			l-2.6-0.8l2.4-1.3c7.3-3.9,11.8-11.5,11.8-19.7C64.4-60.1,54.4-70.1,42-70.1z M42-29.1c-10.2,0-18.6-8.3-18.6-18.6
			c0-10.2,8.3-18.6,18.6-18.6c10.2,0,18.6,8.3,18.6,18.6C60.6-37.5,52.3-29.1,42-29.1z"/>
	</g>
</g>
</svg>
