<?xml version="1.0" encoding="utf-8"?>
<!-- Generator: Adobe Illustrator 23.1.1, SVG Export Plug-In . SVG Version: 6.00 Build 0)  -->
<svg version="1.1" id="Layer_1" xmlns="http://www.w3.org/2000/svg" xmlns:xlink="http://www.w3.org/1999/xlink" x="0px" y="0px"
	 viewBox="0 0 3300 2200" style="enable-background:new 0 0 3300 2200;" xml:space="preserve">
<style type="text/css">
	.st0{fill:#FFFFFF;}
	.st1{fill:none;stroke:#000000;stroke-width:0.5;}
	.st2{font-family:'Arial-BoldMT';}
	.st3{font-size:12px;}
	.st4{font-family:'ArialMT';}
	.st5{opacity:0.4;fill:#00AEEF;enable-background:new    ;}
	.st6{fill:#27AAE1;}
	.st7{fill:none;stroke:#27AAE1;stroke-width:0.577;}
</style>
<g id="Notes">
	<rect id="artboard" class="st0" width="3300" height="2200"/>
	<line class="st1" x1="263" y1="292" x2="3036" y2="292"/>
	<text transform="matrix(1 0 0 1 263 322)" class="st2 st3">Weight/Scale Variations</text>
	<text transform="matrix(1 0 0 1 536.0361 322)" class="st4 st3">Ultralight</text>
	<text transform="matrix(1 0 0 1 844.7501 322)" class="st4 st3">Thin</text>
	<text transform="matrix(1 0 0 1 1140.1193 322)" class="st4 st3">Light</text>
	<text transform="matrix(1 0 0 1 1428.8282 322)" class="st4 st3">Regular</text>
	<text transform="matrix(1 0 0 1 1725.2202 322)" class="st4 st3">Medium</text>
	<text transform="matrix(1 0 0 1 2018.2563 322)" class="st4 st3">Semibold</text>
	<text transform="matrix(1 0 0 1 2327.9712 322)" class="st4 st3">Bold</text>
	<text transform="matrix(1 0 0 1 2619.6831 322)" class="st4 st3">Heavy</text>
	<text transform="matrix(1 0 0 1 2918.728 322)" class="st4 st3">Black</text>
	<line class="st1" x1="263" y1="1903" x2="3036" y2="1903"/>
	<g transform="matrix(1 0 0 1 263 1933)">
		<path d="M9.2,0.8c4.3,0,7.9-3.6,7.9-7.9c0-4.3-3.6-7.9-7.9-7.9c-4.3,0-7.9,3.6-7.9,7.9C1.4-2.7,5,0.8,9.2,0.8z M9.2-0.7
			c-3.5,0-6.4-2.8-6.4-6.4c0-3.6,2.8-6.4,6.4-6.4c3.6,0,6.4,2.8,6.4,6.4C15.7-3.5,12.8-0.7,9.2-0.7z M9.2-3.4c0.5,0,0.7-0.3,0.7-0.8
			v-2.1h2.2C12.7-6.3,13-6.6,13-7c0-0.5-0.3-0.7-0.8-0.7H10V-10c0-0.5-0.3-0.8-0.7-0.8S8.5-10.5,8.5-10v2.2H6.3
			C5.8-7.8,5.4-7.5,5.4-7c0,0.5,0.4,0.7,0.8,0.7h2.2v2.1C8.5-3.8,8.8-3.4,9.2-3.4z"/>
	</g>
	<g transform="matrix(1 0 0 1 281.506 1933)">
		<path d="M11.7,2.9c5.4,0,10-4.5,10-10c0-5.4-4.5-10-10-10c-5.4,0-10,4.5-10,10C1.7-1.6,6.3,2.9,11.7,2.9z M11.7,1.2
			c-4.6,0-8.3-3.7-8.3-8.3c0-4.6,3.7-8.3,8.3-8.3c4.6,0,8.3,3.7,8.3,8.3C20-2.4,16.3,1.2,11.7,1.2z M11.7-2.4c0.5,0,0.8-0.4,0.8-0.9
			v-2.9h3.1c0.5,0,0.9-0.3,0.9-0.8c0-0.5-0.4-0.8-0.9-0.8h-3.1v-3.1c0-0.6-0.3-0.9-0.8-0.9c-0.5,0-0.8,0.4-0.8,0.9v3.1h-3
			C7.3-7.9,6.9-7.6,6.9-7c0,0.5,0.4,0.8,0.9,0.8h3v2.9C10.9-2.8,11.2-2.4,11.7-2.4z"/>
	</g>
	<g transform="matrix(1 0 0 1 304.924 1933)">
		<path d="M15,5.7c7,0,12.7-5.8,12.7-12.7c0-7-5.8-12.7-12.7-12.7C8-19.8,2.3-14,2.3-7C2.3-0.1,8,5.7,15,5.7z M15,3.9
			C8.9,3.9,4.1-1,4.1-7c0-6,4.8-10.9,10.9-10.9c6,0,10.9,4.9,10.9,10.9C25.9-1,21,3.9,15,3.9z M15-1.1c0.6,0,0.9-0.4,0.9-1v-4.1h4.2
			c0.6,0,1-0.3,1-0.9c0-0.6-0.4-0.9-1-0.9h-4.2v-4.2c0-0.6-0.4-1-0.9-1c-0.6,0-0.9,0.4-0.9,1v4.2H9.8c-0.6,0-1,0.3-1,0.9
			c0,0.6,0.4,0.9,1,0.9h4.2v4.1C14.1-1.5,14.4-1.1,15-1.1z"/>
	</g>
	<text transform="matrix(1 0 0 1 263 1953)" class="st2 st3">Design Variations</text>
	<text transform="matrix(1 0 0 1 263 1971)" class="st4 st3">Symbols are supported in up to nine weights and three scales.</text>
	<text transform="matrix(1 0 0 1 263 1989)" class="st4 st3">For optimal layout with text and other symbols, vertically align</text>
	<text transform="matrix(1 0 0 1 263 2007)" class="st4 st3">symbols with the adjacent text.</text>
	<rect x="776" y="1919" class="st5" width="3" height="14"/>
	<g transform="matrix(1 0 0 1 779 1933)">
		<path d="M10.5,0h1.8L7.2-14.1H5.4L0.2,0h1.8l1.4-4h5.6L10.5,0z M6.3-12L6.3-12l2.3,6.4H4L6.3-12z"/>
	</g>
	<rect x="791.6" y="1919" class="st5" width="3" height="14"/>
	<text transform="matrix(1 0 0 1 776 1953)" class="st2 st3">Margins</text>
	<text transform="matrix(1 0 0 1 776 1971)" class="st4 st3">Leading and trailing margins on the left and right side of each symbol</text>
	<text transform="matrix(1 0 0 1 776 1989)" class="st4 st3">can be adjusted by modifying the width of the blue rectangles.</text>
	<text transform="matrix(1 0 0 1 776 2007)" class="st4 st3">Modifications are automatically applied proportionally to all</text>
	<text transform="matrix(1 0 0 1 776 2025)" class="st4 st3">scales and weights.</text>
	<g transform="matrix(1 0 0 1 1289 1933)">
		<path d="M2.8,3.1l1.5,1.5c0.8,0.8,1.8,0.8,2.7-0.2L17.3-6.7c0.4,0.3,0.8,0.3,1.3,0.2l1-0.2L20.3-6l0,0.5C20.2-5,20.4-4.5,20.8-4
			l0.8,0.8c0.5,0.5,1.2,0.5,1.6,0.1l3.3-3.3c0.5-0.5,0.5-1.1,0-1.6l-0.8-0.8c-0.5-0.5-0.9-0.7-1.4-0.6l-0.5,0.1l-0.7-0.7l0.3-1.1
			c0.1-0.6,0-1-0.6-1.6l-2.4-2.4c-3.5-3.5-8.1-3.4-11.2-0.3c-0.4,0.4-0.5,1-0.2,1.4c0.2,0.4,0.7,0.6,1.4,0.4c1.5-0.4,3-0.3,4.5,0.7
			l-0.6,1.6c-0.2,0.6-0.2,1.1,0,1.5L3,0.4C2.1,1.3,2,2.3,2.8,3.1z M10.7-15.1c2.7-2,6-1.7,8.4,0.7l2.6,2.6c0.2,0.2,0.3,0.4,0.2,0.7
			l-0.4,1.6L23.1-8L24-8c0.3,0,0.4,0,0.6,0.2l0.6,0.6l-2.8,2.7l-0.6-0.6c-0.2-0.2-0.2-0.3-0.2-0.6l0.1-1l-1.6-1.6l-1.6,0.3
			c-0.3,0.1-0.4,0.1-0.7-0.2l-2.2-2.2c-0.2-0.2-0.3-0.4-0.1-0.7l0.9-2.3c-1.6-1.5-3.7-2.4-5.8-1.7c-0.1,0-0.2,0-0.2,0
			C10.6-15,10.6-15.1,10.7-15.1z M4.1,2.4c-0.5-0.5-0.3-0.8,0-1.1l11-10.1l1.2,1.2L6.2,3.3c-0.3,0.3-0.7,0.4-1.1,0L4.1,2.4z"/>
	</g>
	<text transform="matrix(1 0 0 1 1289 1953)" class="st2 st3">Exporting</text>
	<text transform="matrix(1 0 0 1 1289 1971)" class="st4 st3">Symbols should be outlined when exporting to ensure the</text>
	<text transform="matrix(1 0 0 1 1289 1989)" class="st4 st3">design is preserved when submitting to Xcode.</text>
	<text id="template-version" transform="matrix(1 0 0 1 2958.8496 1933)" class="st4 st3">Template v.1.0</text>
	<text transform="matrix(1 0 0 1 2912.8359 1951)" class="st4 st3">Generated from play.fill</text>
	<text transform="matrix(1 0 0 1 2921.9238 1969)" class="st4 st3">Typeset at 100 points</text>
	<text transform="matrix(1 0 0 1 263 726)" class="st4 st3">Small</text>
	<text transform="matrix(1 0 0 1 263 1156)" class="st4 st3">Medium</text>
	<text transform="matrix(1 0 0 1 263 1586)" class="st4 st3">Large</text>
</g>
<g id="Guides">
	<g id="H-reference" transform="matrix(1 0 0 1 339 696)">
		<path class="st6" d="M54.9,0h2.7L30.6-70.5h-2.5L1,0h2.7l9.3-24.5h32.8L54.9,0z M29.2-67.1h0.2l15.4,40.4h-31L29.2-67.1z"/>
	</g>
	<line id="Baseline-S" class="st7" x1="263" y1="696" x2="3036" y2="696"/>
	<line id="Capline-S" class="st7" x1="263" y1="625.5" x2="3036" y2="625.5"/>
	<g transform="matrix(1 0 0 1 339 1126)">
		<path class="st6" d="M54.9,0h2.7L30.6-70.5h-2.5L1,0h2.7l9.3-24.5h32.8L54.9,0z M29.2-67.1h0.2l15.4,40.4h-31L29.2-67.1z"/>
	</g>
	<line id="Baseline-M" class="st7" x1="263" y1="1126" x2="3036" y2="1126"/>
	<line id="Capline-M" class="st7" x1="263" y1="1055.5" x2="3036" y2="1055.5"/>
	<g transform="matrix(1 0 0 1 339 1556)">
		<path class="st6" d="M54.9,0h2.7L30.6-70.5h-2.5L1,0h2.7l9.3-24.5h32.8L54.9,0z M29.2-67.1h0.2l15.4,40.4h-31L29.2-67.1z"/>
	</g>
	<line id="Baseline-L" class="st7" x1="263" y1="1556" x2="3036" y2="1556"/>
	<line id="Capline-L" class="st7" x1="263" y1="1485.5" x2="3036" y2="1485.5"/>
	<rect id="left-margin" x="1406.1" y="1030.8" class="st5" width="12.5" height="119.3"/>
	<rect id="right-margin" x="1492.3" y="1030.8" class="st5" width="1.3" height="119.3"/>
</g>
<g id="Symbols">
	<g id="Black-L" transform="matrix(1 0 0 1 2869.8 1556)">
		<path d="M74,16.9c-2.6,0-5.1-1-7-2.9L24.5-28.6c-3.6-3.9-3.4-9.9,0.3-13.6l42.3-42.2c3.9-3.8,10.1-3.8,13.9,0
			c1.9,1.8,2.9,4.3,2.9,6.9c0,2.6-1,5.1-2.9,7L45.7-35.2L81,0.1c1.9,1.8,2.9,4.3,2.9,6.9c0,2.6-1,5.1-2.9,7
			C79.1,15.9,76.7,16.9,74,16.9z"/>
	</g>
	<g id="Heavy-L" transform="matrix(1 0 0 1 2574.9 1556)">
		<path d="M72.2,16.3c-2.5,0-4.8-1-6.6-2.7L23.2-28.9c-3.4-3.7-3.3-9.4,0.2-12.9L65.7-84c3.6-3.6,9.5-3.6,13.1,0
			c1.7,1.7,2.7,4,2.7,6.5c0,2.5-1,4.8-2.7,6.6L43.1-35.2L78.8,0.5c1.7,1.7,2.7,4,2.7,6.5c0,2.5-1,4.8-2.7,6.6
			C77,15.4,74.7,16.3,72.2,16.3z"/>
	</g>
	<g id="Bold-L" transform="matrix(1 0 0 1 2280.19 1556)">
		<path d="M70.2,15.8c-2.3,0-4.5-0.9-6.2-2.5L21.6-29.3c-3.2-3.5-3.1-8.8,0.2-12.1l42.3-42.2c3.4-3.4,9-3.4,12.4,0
			c1.6,1.6,2.6,3.8,2.6,6.1c0,2.3-0.9,4.5-2.6,6.2L40.3-35.2L76.4,0.9C78,2.5,78.9,4.7,78.9,7c0,2.3-0.9,4.5-2.6,6.2
			C74.7,14.9,72.5,15.8,70.2,15.8z"/>
	</g>
	<g id="Semibold-L" transform="matrix(1 0 0 1 1984.87 1556)">
		<path d="M68.8,15.2c-2.2,0-4.2-0.8-5.8-2.4L20.6-29.7c-3-3.3-2.9-8.2,0.2-11.3l42.3-42.2c3.2-3.2,8.4-3.2,11.6,0
			c1.5,1.5,2.4,3.6,2.4,5.7c0,2.2-0.8,4.2-2.4,5.8L38.1-35.2L74.6,1.3C76.1,2.8,77,4.9,77,7c0,2.2-0.8,4.2-2.4,5.8
			C73.1,14.4,71,15.2,68.8,15.2z"/>
	</g>
	<g id="Medium-L" transform="matrix(1 0 0 1 1689.21 1556)">
		<path d="M67.8,14.7c-2,0-4-0.8-5.4-2.2L20-30.1c-2.8-3-2.7-7.6,0.2-10.5l42.3-42.2c3-3,7.8-3,10.8,0c1.4,1.4,2.2,3.3,2.2,5.3
			c0,2-0.8,4-2.2,5.4L36.3-35.2L73.2,1.7C74.6,3.1,75.4,5,75.4,7c0,2-0.8,4-2.2,5.4C71.7,13.9,69.8,14.7,67.8,14.7z"/>
	</g>
	<g id="Regular-L" transform="matrix(1 0 0 1 1393.89 1556)">
		<path d="M34.1-35.2l37.3-37.3c2.8-2.8,2.8-7.2,0-9.9c-2.8-2.8-7.2-2.7-10,0L19.2-40.2c-2.7,2.7-2.7,7-0.2,9.7L61.4,12
			c1.4,1.4,3.2,2.1,5,2.1c1.8,0,3.6-0.7,5-2.1c2.8-2.8,2.8-7.2,0-9.9L34.1-35.2z"/>
	</g>
	<g id="Light-L" transform="matrix(1 0 0 1 1097.88 1556)">
		<path d="M65.7-83.9c-1.7,0-3.3,0.6-4.6,1.9L18.9-39.8c-2.5,2.4-2.5,6.4-0.2,8.9l42.4,42.5c1.2,1.2,2.8,1.9,4.6,1.9
			c1.7,0,3.4-0.7,4.6-1.9c1.2-1.2,1.9-2.9,1.9-4.6c0-1.7-0.7-3.3-1.9-4.5L32.6-35.2l37.7-37.7c1.2-1.2,1.9-2.9,1.9-4.6
			c0-1.7-0.7-3.3-1.9-4.5C69.1-83.3,67.4-83.9,65.7-83.9z"/>
	</g>
	<g id="Thin-L" transform="matrix(1 0 0 1 802.125 1556)">
		<path d="M64.8-83.3c-1.5,0-3,0.6-4.2,1.7L18.3-39.4c-2.2,2.2-2.3,5.8-0.2,8.2l42.4,42.5c1.1,1.1,2.6,1.7,4.2,1.7s3.1-0.6,4.2-1.7
			c1.1-1.1,1.7-2.6,1.7-4.2c0-1.6-0.6-3-1.7-4.2L30.9-35.2L69-73.2c1.1-1.1,1.7-2.6,1.7-4.2c0-1.6-0.6-3-1.7-4.2
			C67.8-82.8,66.3-83.3,64.8-83.3z"/>
	</g>
	<g id="Ultralight-L" transform="matrix(1 0 0 1 505.903 1556)">
		<path d="M64.3-82.8c-1.4,0-2.8,0.5-3.8,1.6L18.2-39c-2,2-2.1,5.3-0.2,7.4l42.4,42.5c1,1,2.4,1.6,3.8,1.6c1.4,0,2.8-0.6,3.8-1.6
			c1-1,1.6-2.4,1.6-3.8c0-1.4-0.6-2.8-1.6-3.8L29.6-35.2l38.5-38.5c1-1,1.6-2.4,1.6-3.8c0-1.4-0.6-2.8-1.6-3.8
			C67-82.3,65.7-82.8,64.3-82.8z"/>
	</g>
	<g id="Black-M" transform="matrix(1 0 0 1 2882.06 1126)">
		<path d="M65,10.3c-2.4,0-4.6-0.9-6.2-2.6l-38-38c-3.2-3.5-3.1-8.8,0.3-12.1l37.7-37.7c3.5-3.4,9-3.4,12.4,0
			c1.7,1.6,2.6,3.8,2.6,6.2c0,2.4-0.9,4.6-2.6,6.2L39.7-36.2L71.2-4.7c1.7,1.6,2.6,3.8,2.6,6.2c0,2.4-0.9,4.6-2.6,6.2
			C69.5,9.4,67.3,10.3,65,10.3z"/>
	</g>
	<g id="Heavy-M" transform="matrix(1 0 0 1 2587.13 1126)">
		<path d="M63.2,9.8c-2.2,0-4.3-0.9-5.9-2.4l-37.9-38c-3.1-3.3-3-8.4,0.2-11.5l37.7-37.7c3.3-3.2,8.5-3.2,11.7,0
			c1.6,1.5,2.4,3.6,2.4,5.8c0,2.2-0.9,4.3-2.4,5.9L37.2-36.2L69.1-4.3c1.6,1.5,2.4,3.6,2.4,5.8c0,2.2-0.9,4.3-2.4,5.9
			C67.5,9,65.4,9.8,63.2,9.8z"/>
	</g>
	<g id="Bold-M" transform="matrix(1 0 0 1 2292.42 1126)">
		<path d="M61.2,9.3c-2.1,0-4-0.8-5.5-2.3l-37.9-38C14.9-34,15-38.8,18-41.7l37.7-37.7c3.1-3,8-3,11,0C68.2-78,69-76,69-73.9
			c0,2.1-0.8,4.1-2.3,5.5L34.5-36.2L66.7-4C68.2-2.5,69-0.6,69,1.5c0,2.1-0.8,4.1-2.3,5.5C65.3,8.5,63.3,9.3,61.2,9.3z"/>
	</g>
	<g id="Semibold-M" transform="matrix(1 0 0 1 1997.08 1126)">
		<path d="M59.8,8.8c-2,0-3.8-0.8-5.2-2.1l-37.9-38c-2.7-2.9-2.6-7.3,0.2-10.1L54.7-79c2.9-2.8,7.5-2.8,10.3,0
			c1.4,1.4,2.1,3.2,2.1,5.1c0,2-0.8,3.8-2.1,5.2L32.4-36.2L65-3.6c1.4,1.4,2.1,3.2,2.1,5.1c0,2-0.8,3.8-2.1,5.2
			C63.6,8.1,61.8,8.8,59.8,8.8z"/>
	</g>
	<g id="Medium-M" transform="matrix(1 0 0 1 1701.41 1126)">
		<path d="M58.8,8.3c-1.8,0-3.5-0.7-4.8-2l-37.9-38c-2.5-2.7-2.4-6.8,0.2-9.4L54-78.7c2.7-2.6,7-2.6,9.6,0c1.3,1.3,2,3,2,4.8
			c0,1.8-0.7,3.5-2,4.8L30.7-36.2L63.6-3.2c1.3,1.3,2,3,2,4.8c0,1.8-0.7,3.5-2,4.8C62.3,7.6,60.6,8.3,58.8,8.3z"/>
	</g>
	<g id="Regular-M" transform="matrix(1 0 0 1 1406.07 1126)">
		<path d="M28.6-36.2l33.3-33.3c2.5-2.5,2.5-6.4,0-8.9c-2.5-2.5-6.4-2.4-8.9,0L15.3-40.6c-2.4,2.4-2.4,6.2-0.2,8.7L53,6
			c1.2,1.2,2.9,1.8,4.5,1.8c1.6,0,3.2-0.6,4.5-1.8c2.5-2.5,2.5-6.4,0-8.9L28.6-36.2z"/>
	</g>
	<g id="Light-M" transform="matrix(1 0 0 1 1109.99 1126)">
		<path d="M56.8-79.7c-1.5,0-3,0.6-4.1,1.7L15-40.3c-2.2,2.2-2.3,5.7-0.2,8L52.7,5.6c1.1,1.1,2.5,1.7,4.1,1.7s3-0.6,4.1-1.7
			c1.1-1.1,1.7-2.6,1.7-4.1c0-1.5-0.6-3-1.7-4.1L27.3-36.2l33.7-33.6c1.1-1.1,1.7-2.6,1.7-4.1c0-1.5-0.6-3-1.7-4.1
			C59.8-79.1,58.3-79.7,56.8-79.7z"/>
	</g>
	<g id="Thin-M" transform="matrix(1 0 0 1 814.137 1126)">
		<path d="M56-79.2c-1.4,0-2.7,0.5-3.8,1.5L14.5-39.9c-2,2-2.1,5.2-0.2,7.3L52.2,5.3c1,1,2.3,1.5,3.7,1.5s2.8-0.5,3.7-1.5
			c1-1,1.6-2.3,1.6-3.8c0-1.4-0.6-2.7-1.5-3.7l-34-34l34-34c1-1,1.6-2.3,1.6-3.8c0-1.4-0.6-2.7-1.6-3.7C58.7-78.7,57.3-79.2,56-79.2
			z"/>
	</g>
	<g id="Ultralight-M" transform="matrix(1 0 0 1 517.865 1126)">
		<path d="M55.6-78.7c-1.2,0-2.5,0.5-3.4,1.4L14.4-39.6c-1.8,1.8-1.9,4.7-0.1,6.6L52.1,4.9c0.9,0.9,2.1,1.4,3.4,1.4s2.5-0.5,3.4-1.4
			c0.9-0.9,1.4-2.1,1.4-3.4c0-1.3-0.5-2.5-1.4-3.4L24.6-36.2l34.4-34.3c0.9-0.9,1.4-2.1,1.4-3.4c0-1.3-0.5-2.5-1.4-3.4
			C58-78.2,56.8-78.7,55.6-78.7z"/>
	</g>
	<g id="Black-S" transform="matrix(1 0 0 1 2893.31 696)">
		<path d="M58.3,5.7c-2.1,0-4-0.8-5.5-2.3L19.4-30c-2.8-3.1-2.7-7.7,0.2-10.7l33.2-33.2c3-3,7.9-3,10.9,0c1.5,1.4,2.3,3.4,2.3,5.4
			c0,2.1-0.8,4-2.3,5.5L36-35.2L63.7-7.5C65.2-6.1,66-4.1,66-2.1c0,2.1-0.8,4-2.3,5.5C62.3,4.9,60.3,5.7,58.3,5.7z"/>
	</g>
	<g id="Heavy-S" transform="matrix(1 0 0 1 2597.89 696)">
		<path d="M57,5.2c-2,0-3.8-0.8-5.2-2.1L18.5-30.3c-2.7-2.9-2.6-7.4,0.2-10.1l33.2-33.2c2.9-2.8,7.5-2.8,10.3,0
			c1.4,1.4,2.1,3.2,2.1,5.1c0,2-0.8,3.8-2.1,5.2l-28.1,28l28,28.1c1.4,1.4,2.1,3.2,2.1,5.1c0,2-0.8,3.8-2.1,5.2
			C60.8,4.5,58.9,5.2,57,5.2z"/>
	</g>
	<g id="Bold-S" transform="matrix(1 0 0 1 2302.62 696)">
		<path d="M55.5,4.8c-1.8,0-3.6-0.7-4.9-2L17.3-30.6c-2.5-2.8-2.4-6.9,0.2-9.5l33.2-33.2c2.7-2.7,7-2.7,9.7,0c1.3,1.3,2,3,2,4.8
			c0,1.8-0.7,3.6-2,4.9L32-35.2L60.4-6.9c1.3,1.3,2,3,2,4.8c0,1.8-0.7,3.6-2,4.9C59.1,4.1,57.4,4.8,55.5,4.8z"/>
	</g>
	<g id="Semibold-S" transform="matrix(1 0 0 1 2006.91 696)">
		<path d="M54.5,4.4c-1.7,0-3.3-0.7-4.5-1.9L16.7-30.9c-2.3-2.6-2.3-6.4,0.2-8.9L50-73c2.5-2.5,6.6-2.5,9.1,0
			c1.2,1.2,1.9,2.8,1.9,4.5c0,1.7-0.7,3.3-1.9,4.6L30.4-35.2L59.1-6.6C60.3-5.4,61-3.8,61-2.1c0,1.7-0.7,3.3-1.9,4.6
			C57.9,3.7,56.3,4.4,54.5,4.4z"/>
	</g>
	<g id="Medium-S" transform="matrix(1 0 0 1 1710.96 696)">
		<path d="M53.8,3.9c-1.6,0-3.1-0.6-4.2-1.7L16.2-31.2c-2.2-2.4-2.1-6,0.2-8.3l33.2-33.2c2.3-2.3,6.1-2.3,8.5,0
			c1.1,1.1,1.7,2.6,1.8,4.2c0,1.6-0.6,3.1-1.8,4.2l-29,29l29,29c1.1,1.1,1.7,2.6,1.8,4.2c0,1.6-0.6,3.1-1.8,4.2
			C56.9,3.3,55.4,3.9,53.8,3.9z"/>
	</g>
	<g id="Regular-S" transform="matrix(1 0 0 1 1415.23 696)">
		<path d="M27.4-35.2l29.3-29.3c2.2-2.2,2.2-5.7,0-7.8c-2.2-2.2-5.7-2.1-7.8,0L15.7-39.2c-2.1,2.1-2.1,5.5-0.2,7.6L48.9,1.9
			C50,3,51.4,3.5,52.8,3.5c1.4,0,2.8-0.5,3.9-1.6c2.2-2.2,2.2-5.7,0-7.8L27.4-35.2z"/>
	</g>
	<g id="Light-S" transform="matrix(1 0 0 1 1119.1 696)">
		<path d="M52.3-73.5c-1.3,0-2.6,0.5-3.6,1.5L15.4-38.8c-1.9,1.9-2,5-0.1,7L48.6,1.6c1,1,2.2,1.5,3.6,1.5s2.7-0.5,3.6-1.5
			c1-1,1.5-2.3,1.5-3.6c0-1.4-0.5-2.6-1.5-3.6L26.2-35.2l29.6-29.6c1-1,1.5-2.3,1.5-3.6c0-1.4-0.5-2.6-1.5-3.6
			C54.9-73,53.6-73.5,52.3-73.5z"/>
	</g>
	<g id="Thin-S" transform="matrix(1 0 0 1 823.121 696)">
		<path d="M51.5-73.1c-1.2,0-2.4,0.5-3.3,1.4L15-38.5c-1.8,1.8-1.8,4.6-0.1,6.4L48.2,1.3c0.9,0.9,2,1.4,3.3,1.4s2.4-0.5,3.3-1.4
			c0.9-0.9,1.4-2.1,1.4-3.3c0-1.2-0.5-2.4-1.4-3.3L24.9-35.2l29.9-29.9c0.9-0.9,1.4-2.1,1.4-3.3c0-1.2-0.5-2.4-1.4-3.3
			C53.9-72.6,52.7-73.1,51.5-73.1z"/>
	</g>
	<g id="Ultralight-S" transform="matrix(1 0 0 1 526.801 696)">
		<path d="M51.1-72.6c-1.1,0-2.2,0.4-3,1.2L14.9-38.2c-1.6,1.6-1.6,4.1-0.1,5.8L48.1,0.9c0.8,0.8,1.9,1.2,3,1.2s2.2-0.4,3-1.2
			c0.8-0.8,1.2-1.9,1.2-3c0-1.1-0.4-2.2-1.2-3L23.9-35.2l30.2-30.2c0.8-0.8,1.2-1.9,1.2-3c0-1.1-0.4-2.2-1.2-2.9
			C53.3-72.2,52.2-72.6,51.1-72.6z"/>
	</g>
</g>
</svg>
